<svg xmlns="http://www.w3.org/2000/svg" xmlns:xlink="http://www.w3.org/1999/xlink" width="998" zoomAndPan="magnify" viewBox="0 0 748.5 359.249998" height="479" preserveAspectRatio="xMidYMid meet" version="1.0">
    <defs>
        <clipPath id="id1">
            <path d="M 588 196 L 747.472656 196 L 747.472656 357 L 588 357 Z M 588 196 " clip-rule="nonzero" />
        </clipPath>
        <clipPath id="id2">
            <path d="M 0.53125 156 L 160 156 L 160 318 L 0.53125 318 Z M 0.53125 156 " clip-rule="nonzero" />
        </clipPath>
        <clipPath id="id3">
            <path d="M 19 313 L 701 313 L 701 358.5 L 19 358.5 Z M 19 313 " clip-rule="nonzero" />
        </clipPath>
    </defs>
    <g clip-path="url(#id1)">
        <path fill="#cccccc" d="M 661.886719 356.789062 L 664.433594 309.417969 C 664.433594 309.417969 747.96875 292.097656 747.96875 242.179688 C 747.96875 192.261719 611.460938 186.148438 597.707031 209.070312 C 597.570312 209.300781 597.433594 209.53125 597.296875 209.757812 C 580.308594 238.40625 589.902344 275.597656 618.804688 292.144531 C 628.691406 297.800781 640.476562 302.640625 654.246094 305.339844 L 653.277344 355.664062 " fill-opacity="1" fill-rule="nonzero" />
    </g>
    <path fill="#ff6884" d="M 631.566406 51 C 631.566406 52.542969 631.492188 54.085938 631.339844 55.621094 C 631.191406 57.160156 630.964844 58.683594 630.660156 60.199219 C 630.359375 61.714844 629.984375 63.210938 629.539062 64.6875 C 629.089844 66.167969 628.570312 67.621094 627.976562 69.046875 C 627.386719 70.472656 626.726562 71.867188 626 73.230469 C 625.273438 74.59375 624.476562 75.914062 623.621094 77.199219 C 622.761719 78.484375 621.84375 79.722656 620.863281 80.917969 C 619.882812 82.109375 618.847656 83.253906 617.753906 84.347656 C 616.664062 85.4375 615.519531 86.472656 614.328125 87.453125 C 613.132812 88.433594 611.894531 89.351562 610.609375 90.210938 C 609.324219 91.070312 608 91.863281 606.640625 92.589844 C 605.277344 93.320312 603.882812 93.976562 602.457031 94.570312 C 601.027344 95.160156 599.578125 95.679688 598.097656 96.128906 C 596.621094 96.578125 595.125 96.953125 593.609375 97.253906 C 592.09375 97.554688 590.566406 97.78125 589.03125 97.933594 C 587.496094 98.082031 585.953125 98.160156 584.410156 98.160156 C 582.863281 98.160156 581.324219 98.082031 579.785156 97.933594 C 578.25 97.78125 576.722656 97.554688 575.207031 97.253906 C 573.695312 96.953125 572.199219 96.578125 570.71875 96.128906 C 569.242188 95.679688 567.789062 95.160156 566.363281 94.570312 C 564.933594 93.976562 563.539062 93.320312 562.179688 92.589844 C 560.816406 91.863281 559.492188 91.070312 558.207031 90.210938 C 556.925781 89.351562 555.683594 88.433594 554.492188 87.453125 C 553.296875 86.472656 552.152344 85.4375 551.0625 84.347656 C 549.96875 83.253906 548.933594 82.109375 547.953125 80.917969 C 546.972656 79.722656 546.054688 78.484375 545.195312 77.199219 C 544.339844 75.914062 543.546875 74.59375 542.816406 73.230469 C 542.089844 71.867188 541.429688 70.472656 540.839844 69.046875 C 540.246094 67.621094 539.726562 66.167969 539.28125 64.6875 C 538.832031 63.210938 538.457031 61.714844 538.15625 60.199219 C 537.855469 58.683594 537.628906 57.160156 537.476562 55.621094 C 537.324219 54.085938 537.25 52.542969 537.25 51 C 537.25 49.453125 537.324219 47.914062 537.476562 46.378906 C 537.628906 44.839844 537.855469 43.3125 538.15625 41.800781 C 538.457031 40.285156 538.832031 38.789062 539.28125 37.308594 C 539.726562 35.832031 540.246094 34.378906 540.839844 32.953125 C 541.429688 31.527344 542.089844 30.132812 542.816406 28.769531 C 543.546875 27.40625 544.339844 26.082031 545.195312 24.800781 C 546.054688 23.515625 546.972656 22.277344 547.953125 21.082031 C 548.933594 19.886719 549.96875 18.746094 551.0625 17.652344 C 552.152344 16.5625 553.296875 15.523438 554.492188 14.542969 C 555.683594 13.566406 556.925781 12.644531 558.207031 11.789062 C 559.492188 10.929688 560.816406 10.136719 562.179688 9.410156 C 563.539062 8.679688 564.933594 8.019531 566.363281 7.429688 C 567.789062 6.839844 569.242188 6.320312 570.71875 5.871094 C 572.199219 5.421875 573.695312 5.046875 575.207031 4.746094 C 576.722656 4.445312 578.25 4.21875 579.785156 4.066406 C 581.324219 3.914062 582.863281 3.839844 584.410156 3.839844 C 585.953125 3.839844 587.496094 3.914062 589.03125 4.066406 C 590.566406 4.21875 592.09375 4.445312 593.609375 4.746094 C 595.125 5.046875 596.621094 5.421875 598.097656 5.871094 C 599.578125 6.320312 601.027344 6.839844 602.457031 7.429688 C 603.882812 8.019531 605.277344 8.679688 606.640625 9.410156 C 608 10.136719 609.324219 10.929688 610.609375 11.789062 C 611.894531 12.644531 613.132812 13.566406 614.328125 14.542969 C 615.519531 15.523438 616.664062 16.5625 617.753906 17.652344 C 618.847656 18.746094 619.882812 19.886719 620.863281 21.082031 C 621.84375 22.277344 622.761719 23.515625 623.621094 24.800781 C 624.480469 26.082031 625.273438 27.40625 626 28.769531 C 626.726562 30.132812 627.386719 31.527344 627.976562 32.953125 C 628.570312 34.378906 629.089844 35.832031 629.539062 37.308594 C 629.984375 38.789062 630.359375 40.285156 630.660156 41.800781 C 630.964844 43.3125 631.191406 44.839844 631.339844 46.378906 C 631.492188 47.914062 631.566406 49.453125 631.566406 51 Z M 631.566406 51 " fill-opacity="1" fill-rule="nonzero" />
    <path fill="#e6e6e6" d="M 514.835938 345.558594 L 461.648438 342.167969 L 458.78125 103 C 458.710938 97.195312 461.023438 91.511719 465.128906 87.40625 L 522.113281 30.425781 C 530.089844 22.449219 542.644531 21.875 551.316406 29.089844 L 613.152344 80.527344 C 618.195312 84.722656 621.046875 90.894531 620.96875 97.457031 L 618.84375 277.320312 L 645.71875 314.648438 L 645.777344 314.726562 L 650.332031 354.195312 Z M 514.835938 345.558594 " fill-opacity="1" fill-rule="nonzero" />
    <path fill="#fc2c54" d="M 523.773438 86.113281 L 523.773438 75.023438 C 523.773438 72.09375 526.15625 69.714844 529.085938 69.714844 L 544.667969 69.714844 C 547.59375 69.714844 549.976562 72.09375 549.976562 75.023438 L 549.976562 86.113281 C 549.976562 89.039062 547.59375 91.421875 544.667969 91.421875 L 529.085938 91.421875 C 526.15625 91.421875 523.773438 89.039062 523.773438 86.113281 Z M 523.773438 86.113281 " fill-opacity="1" fill-rule="nonzero" />
    <path fill="#3f3d56" d="M 490.839844 172.199219 L 490.839844 131.164062 C 490.839844 128.238281 493.21875 125.855469 496.148438 125.855469 L 519.214844 125.855469 C 522.140625 125.855469 524.523438 128.238281 524.523438 131.164062 L 524.523438 172.199219 C 524.523438 175.125 522.140625 177.507812 519.214844 177.507812 L 496.148438 177.507812 C 493.21875 177.507812 490.839844 175.125 490.839844 172.199219 Z M 490.839844 172.199219 " fill-opacity="1" fill-rule="nonzero" />
    <path fill="#3f3d56" d="M 542.980469 268.246094 C 540.191406 268.148438 537.945312 265.886719 537.863281 263.097656 L 536.695312 223.4375 C 536.644531 221.742188 537.378906 220.171875 538.707031 219.117188 C 540.035156 218.066406 541.734375 217.714844 543.371094 218.152344 L 544.535156 218.460938 C 546.855469 219.082031 548.476562 221.191406 548.476562 223.589844 L 548.476562 262.941406 C 548.476562 264.394531 547.902344 265.75 546.855469 266.761719 C 545.855469 267.726562 544.554688 268.25 543.175781 268.25 C 543.109375 268.25 543.046875 268.25 542.980469 268.246094 Z M 542.980469 268.246094 " fill-opacity="1" fill-rule="nonzero" />
    <path fill="#3f3d56" d="M 472.25 266.761719 C 471.203125 265.75 470.628906 264.394531 470.628906 262.941406 L 470.628906 223.589844 C 470.628906 221.191406 472.246094 219.082031 474.570312 218.460938 L 475.734375 218.152344 C 477.371094 217.714844 479.070312 218.066406 480.398438 219.117188 C 481.726562 220.167969 482.460938 221.742188 482.410156 223.4375 L 481.242188 263.097656 C 481.160156 265.886719 478.914062 268.148438 476.125 268.246094 C 476.058594 268.25 475.996094 268.25 475.929688 268.25 C 474.550781 268.25 473.25 267.722656 472.25 266.761719 Z M 472.25 266.761719 " fill-opacity="1" fill-rule="nonzero" />
    <path fill="#3f3d56" d="M 494.582031 262.773438 L 494.582031 221.621094 C 494.582031 218.71875 496.855469 216.386719 499.761719 216.3125 L 520.726562 215.804688 C 523.632812 215.761719 526.078125 218.042969 526.164062 220.957031 L 527.371094 262.621094 C 527.414062 264.066406 526.878906 265.433594 525.871094 266.472656 C 524.863281 267.511719 523.511719 268.082031 522.0625 268.082031 L 499.890625 268.082031 C 496.960938 268.082031 494.582031 265.699219 494.582031 262.773438 Z M 494.582031 262.773438 " fill-opacity="1" fill-rule="nonzero" />
    <path fill="#cccccc" d="M 618.503906 290.894531 L 634.9375 320.109375 L 636.824219 352.960938 L 649.90625 353.792969 L 645.417969 314.867188 L 618.46875 277.441406 C 616.144531 281.625 616.15625 286.71875 618.503906 290.894531 Z M 618.503906 290.894531 " fill-opacity="1" fill-rule="nonzero" />
    <path fill="#3f3d56" d="M 582.964844 344.289062 L 636.296875 343.558594 L 636.308594 344.308594 L 582.972656 345.035156 Z M 582.964844 344.289062 " fill-opacity="1" fill-rule="nonzero" />
    <path fill="#3f3d56" d="M 582.492188 337.347656 L 633.0625 336.953125 L 633.066406 337.699219 L 582.5 338.097656 Z M 582.492188 337.347656 " fill-opacity="1" fill-rule="nonzero" />
    <path fill="#3f3d56" d="M 582.066406 331.144531 L 630.4375 330.203125 L 630.453125 330.949219 L 582.082031 331.894531 Z M 582.066406 331.144531 " fill-opacity="1" fill-rule="nonzero" />
    <path fill="#3f3d56" d="M 582.484375 325.03125 L 628.9375 323.488281 L 628.960938 324.234375 L 582.507812 325.777344 Z M 582.484375 325.03125 " fill-opacity="1" fill-rule="nonzero" />
    <path fill="#3f3d56" d="M 582.058594 319.078125 L 626.691406 317.511719 L 626.714844 318.257812 L 582.085938 319.828125 Z M 582.058594 319.078125 " fill-opacity="1" fill-rule="nonzero" />
    <path fill="#3f3d56" d="M 580.238281 312.25 L 623.707031 312.25 L 623.707031 312.996094 L 580.238281 312.996094 Z M 580.238281 312.25 " fill-opacity="1" fill-rule="nonzero" />
    <path fill="#3f3d56" d="M 579.210938 307.492188 L 621.457031 306.996094 L 621.46875 307.742188 L 579.222656 308.238281 Z M 579.210938 307.492188 " fill-opacity="1" fill-rule="nonzero" />
    <path fill="#3f3d56" d="M 578.269531 303.121094 L 619.203125 301.761719 L 619.230469 302.507812 L 578.292969 303.867188 Z M 578.269531 303.121094 " fill-opacity="1" fill-rule="nonzero" />
    <path fill="#3f3d56" d="M 577.289062 297.257812 L 617.714844 296.546875 L 617.726562 297.296875 L 577.304688 298.007812 Z M 577.289062 297.257812 " fill-opacity="1" fill-rule="nonzero" />
    <path fill="#3f3d56" d="M 576.007812 292.574219 L 614.714844 291.363281 L 614.738281 292.113281 L 576.03125 293.320312 Z M 576.007812 292.574219 " fill-opacity="1" fill-rule="nonzero" />
    <path fill="#3f3d56" d="M 574.859375 287.171875 L 613.226562 286.796875 L 613.230469 287.546875 L 574.867188 287.921875 Z M 574.859375 287.171875 " fill-opacity="1" fill-rule="nonzero" />
    <path fill="#fc2c54" d="M 572.058594 271.382812 L 572.058594 220.617188 C 572.058594 217.691406 574.4375 215.308594 577.367188 215.308594 L 601.929688 215.308594 C 604.859375 215.308594 607.238281 217.691406 607.238281 220.617188 L 607.238281 271.382812 C 607.238281 274.308594 604.859375 276.691406 601.929688 276.691406 L 577.367188 276.691406 C 574.4375 276.691406 572.058594 274.308594 572.058594 271.382812 Z M 572.058594 271.382812 " fill-opacity="1" fill-rule="nonzero" />
    <path fill="#cccccc" d="M 514.835938 345.558594 L 471.351562 342.789062 L 471 342.765625 L 471 309.113281 C 471 304.855469 474.464844 301.394531 478.71875 301.394531 L 521.671875 301.394531 C 525.925781 301.394531 529.390625 304.855469 529.390625 309.113281 L 529.390625 345.558594 Z M 514.835938 345.558594 " fill-opacity="1" fill-rule="nonzero" />
    <path fill="#3f3d56" d="M 575.050781 179.308594 L 575.050781 140.523438 C 575.050781 137.59375 577.433594 135.214844 580.359375 135.214844 L 588.457031 135.214844 C 591.382812 135.214844 593.765625 137.59375 593.765625 140.523438 L 593.765625 179.308594 C 593.765625 182.238281 591.382812 184.617188 588.457031 184.617188 L 580.359375 184.617188 C 577.433594 184.617188 575.050781 182.238281 575.050781 179.308594 Z M 575.050781 179.308594 " fill-opacity="1" fill-rule="nonzero" />
    <path fill="#cccccc" d="M 583.285156 349.300781 L 581.039062 316.363281 L 574.304688 284.925781 L 572.433594 276.316406 C 568.585938 273.703125 563.40625 276.609375 563.640625 281.253906 L 563.824219 284.925781 L 570.558594 316.363281 L 572.804688 349.300781 " fill-opacity="1" fill-rule="nonzero" />
    <path fill="#e6e6e6" d="M 328.445312 333.582031 L 275.257812 330.191406 L 272.386719 91.023438 C 272.320312 85.21875 274.632812 79.535156 278.738281 75.429688 L 335.71875 18.449219 C 343.695312 10.472656 356.25 9.898438 364.921875 17.109375 L 426.761719 68.550781 C 431.804688 72.746094 434.652344 78.917969 434.578125 85.480469 L 432.453125 265.34375 L 459.328125 302.671875 L 459.386719 302.75 L 463.9375 342.21875 Z M 328.445312 333.582031 " fill-opacity="1" fill-rule="nonzero" />
    <path fill="#fc2c54" d="M 337.382812 74.136719 L 337.382812 63.046875 C 337.382812 60.117188 339.765625 57.738281 342.691406 57.738281 L 358.273438 57.738281 C 361.203125 57.738281 363.582031 60.117188 363.582031 63.046875 L 363.582031 74.136719 C 363.582031 77.0625 361.203125 79.445312 358.273438 79.445312 L 342.691406 79.445312 C 339.765625 79.445312 337.382812 77.0625 337.382812 74.136719 Z M 337.382812 74.136719 " fill-opacity="1" fill-rule="nonzero" />
    <path fill="#3f3d56" d="M 304.445312 160.222656 L 304.445312 119.1875 C 304.445312 116.261719 306.828125 113.878906 309.753906 113.878906 L 332.824219 113.878906 C 335.75 113.878906 338.132812 116.261719 338.132812 119.1875 L 338.132812 160.222656 C 338.132812 163.148438 335.75 165.53125 332.824219 165.53125 L 309.753906 165.53125 C 306.828125 165.53125 304.445312 163.148438 304.445312 160.222656 Z M 304.445312 160.222656 " fill-opacity="1" fill-rule="nonzero" />
    <path fill="#3f3d56" d="M 352.777344 207.726562 C 351.640625 208.632812 351.007812 209.984375 351.050781 211.4375 L 352.21875 251.097656 C 352.289062 253.492188 354.21875 255.4375 356.617188 255.519531 C 357.875 255.570312 359.046875 255.113281 359.945312 254.246094 C 360.84375 253.378906 361.335938 252.210938 361.335938 250.964844 L 361.335938 211.613281 C 361.335938 209.550781 359.945312 207.738281 357.953125 207.207031 L 356.785156 206.898438 C 356.390625 206.792969 355.992188 206.738281 355.59375 206.738281 C 354.582031 206.738281 353.597656 207.078125 352.777344 207.726562 Z M 352.777344 207.726562 " fill-opacity="1" fill-rule="nonzero" />
    <path fill="#3f3d56" d="M 285.855469 254.785156 C 284.8125 253.773438 284.234375 252.417969 284.234375 250.964844 L 284.234375 211.613281 C 284.234375 209.214844 285.855469 207.105469 288.175781 206.484375 L 289.34375 206.171875 C 290.976562 205.738281 292.679688 206.089844 294.007812 207.140625 C 295.335938 208.195312 296.066406 209.765625 296.019531 211.460938 L 294.851562 251.121094 C 294.769531 253.910156 292.519531 256.171875 289.734375 256.269531 C 289.667969 256.273438 289.601562 256.273438 289.539062 256.273438 C 288.15625 256.273438 286.855469 255.746094 285.855469 254.785156 Z M 285.855469 254.785156 " fill-opacity="1" fill-rule="nonzero" />
    <path fill="#3f3d56" d="M 308.1875 250.796875 L 308.1875 209.644531 C 308.1875 206.738281 310.464844 204.410156 313.371094 204.335938 L 334.335938 203.828125 C 334.378906 203.824219 334.421875 203.824219 334.464844 203.824219 C 337.320312 203.824219 339.6875 206.109375 339.769531 208.980469 L 340.980469 250.644531 C 341.019531 252.089844 340.488281 253.457031 339.480469 254.496094 C 338.472656 255.535156 337.121094 256.105469 335.671875 256.105469 L 313.5 256.105469 C 310.570312 256.105469 308.1875 253.722656 308.1875 250.796875 Z M 308.1875 250.796875 " fill-opacity="1" fill-rule="nonzero" />
    <path fill="#cccccc" d="M 432.113281 278.917969 L 448.542969 308.132812 L 450.429688 340.984375 L 463.515625 341.816406 L 459.023438 302.890625 L 432.078125 265.460938 C 429.75 269.648438 429.765625 274.742188 432.113281 278.917969 Z M 432.113281 278.917969 " fill-opacity="1" fill-rule="nonzero" />
    <path fill="#3f3d56" d="M 396.570312 332.3125 L 449.90625 331.582031 L 449.914062 332.332031 L 396.582031 333.058594 Z M 396.570312 332.3125 " fill-opacity="1" fill-rule="nonzero" />
    <path fill="#3f3d56" d="M 396.101562 325.371094 L 446.671875 324.976562 L 446.675781 325.722656 L 396.105469 326.121094 Z M 396.101562 325.371094 " fill-opacity="1" fill-rule="nonzero" />
    <path fill="#3f3d56" d="M 395.675781 319.167969 L 444.046875 318.222656 L 444.0625 318.972656 L 395.6875 319.917969 Z M 395.675781 319.167969 " fill-opacity="1" fill-rule="nonzero" />
    <path fill="#3f3d56" d="M 396.09375 313.054688 L 442.542969 311.511719 L 442.570312 312.257812 L 396.117188 313.800781 Z M 396.09375 313.054688 " fill-opacity="1" fill-rule="nonzero" />
    <path fill="#3f3d56" d="M 395.667969 307.101562 L 440.296875 305.53125 L 440.324219 306.28125 L 395.691406 307.851562 Z M 395.667969 307.101562 " fill-opacity="1" fill-rule="nonzero" />
    <path fill="#3f3d56" d="M 393.847656 300.273438 L 437.316406 300.273438 L 437.316406 301.019531 L 393.847656 301.019531 Z M 393.847656 300.273438 " fill-opacity="1" fill-rule="nonzero" />
    <path fill="#3f3d56" d="M 392.820312 295.511719 L 435.066406 295.019531 L 435.074219 295.765625 L 392.828125 296.261719 Z M 392.820312 295.511719 " fill-opacity="1" fill-rule="nonzero" />
    <path fill="#3f3d56" d="M 391.875 291.140625 L 432.8125 289.78125 L 432.835938 290.53125 L 391.902344 291.890625 Z M 391.875 291.140625 " fill-opacity="1" fill-rule="nonzero" />
    <path fill="#3f3d56" d="M 390.898438 285.28125 L 431.320312 284.570312 L 431.335938 285.320312 L 390.910156 286.027344 Z M 390.898438 285.28125 " fill-opacity="1" fill-rule="nonzero" />
    <path fill="#3f3d56" d="M 389.617188 280.597656 L 428.320312 279.386719 L 428.34375 280.132812 L 389.640625 281.34375 Z M 389.617188 280.597656 " fill-opacity="1" fill-rule="nonzero" />
    <path fill="#3f3d56" d="M 388.46875 275.195312 L 426.832031 274.820312 L 426.839844 275.570312 L 388.476562 275.945312 Z M 388.46875 275.195312 " fill-opacity="1" fill-rule="nonzero" />
    <path fill="#fc2c54" d="M 385.664062 259.40625 L 385.664062 208.640625 C 385.664062 205.714844 388.046875 203.332031 390.972656 203.332031 L 415.539062 203.332031 C 418.464844 203.332031 420.847656 205.714844 420.847656 208.640625 L 420.847656 259.40625 C 420.847656 262.332031 418.464844 264.714844 415.539062 264.714844 L 390.972656 264.714844 C 388.046875 264.714844 385.664062 262.332031 385.664062 259.40625 Z M 385.664062 259.40625 " fill-opacity="1" fill-rule="nonzero" />
    <path fill="#cccccc" d="M 328.445312 333.582031 L 284.960938 330.8125 L 284.609375 330.789062 L 284.609375 297.136719 C 284.609375 292.878906 288.074219 289.417969 292.328125 289.417969 L 335.277344 289.417969 C 339.535156 289.417969 342.996094 292.878906 342.996094 297.136719 L 342.996094 333.582031 Z M 328.445312 333.582031 " fill-opacity="1" fill-rule="nonzero" />
    <path fill="#3f3d56" d="M 388.660156 167.332031 L 388.660156 128.546875 C 388.660156 125.617188 391.042969 123.234375 393.96875 123.234375 L 402.066406 123.234375 C 404.992188 123.234375 407.375 125.617188 407.375 128.546875 L 407.375 167.332031 C 407.375 170.257812 404.992188 172.640625 402.066406 172.640625 L 393.96875 172.640625 C 391.042969 172.640625 388.660156 170.257812 388.660156 167.332031 Z M 388.660156 167.332031 " fill-opacity="1" fill-rule="nonzero" />
    <path fill="#cccccc" d="M 396.894531 337.324219 L 394.648438 304.386719 L 387.910156 272.949219 L 386.039062 264.339844 C 382.195312 261.726562 377.015625 264.632812 377.246094 269.277344 L 377.429688 272.949219 L 384.167969 304.386719 L 386.414062 337.324219 " fill-opacity="1" fill-rule="nonzero" />
    <path fill="#e6e6e6" d="M 142.050781 321.605469 L 88.863281 318.214844 L 85.996094 79.046875 C 85.925781 73.242188 88.242188 67.558594 92.347656 63.453125 L 149.328125 6.472656 C 157.304688 -1.503906 169.859375 -2.078125 178.53125 5.132812 L 240.367188 56.574219 C 245.414062 60.769531 248.261719 66.941406 248.183594 73.503906 L 246.058594 253.367188 L 272.9375 290.695312 L 272.992188 290.773438 L 277.546875 330.242188 Z M 142.050781 321.605469 " fill-opacity="1" fill-rule="nonzero" />
    <path fill="#fc2c54" d="M 150.992188 62.160156 L 150.992188 51.070312 C 150.992188 48.140625 153.371094 45.757812 156.300781 45.757812 L 171.882812 45.757812 C 174.808594 45.757812 177.191406 48.140625 177.191406 51.070312 L 177.191406 62.160156 C 177.191406 65.085938 174.808594 67.46875 171.882812 67.46875 L 156.300781 67.46875 C 153.371094 67.46875 150.992188 65.085938 150.992188 62.160156 Z M 150.992188 62.160156 " fill-opacity="1" fill-rule="nonzero" />
    <path fill="#3f3d56" d="M 118.054688 148.242188 L 118.054688 107.210938 C 118.054688 104.285156 120.4375 101.902344 123.363281 101.902344 L 146.429688 101.902344 C 149.359375 101.902344 151.738281 104.285156 151.738281 107.210938 L 151.738281 148.242188 C 151.738281 151.171875 149.359375 153.550781 146.429688 153.550781 L 123.363281 153.550781 C 120.4375 153.550781 118.054688 151.171875 118.054688 148.242188 Z M 118.054688 148.242188 " fill-opacity="1" fill-rule="nonzero" />
    <path fill="#3f3d56" d="M 170.195312 244.292969 C 167.410156 244.195312 165.160156 241.929688 165.078125 239.140625 L 163.910156 199.484375 C 163.863281 197.789062 164.59375 196.214844 165.921875 195.164062 C 167.25 194.113281 168.949219 193.761719 170.585938 194.195312 L 171.753906 194.507812 C 174.074219 195.128906 175.695312 197.234375 175.695312 199.636719 L 175.695312 238.988281 C 175.695312 240.441406 175.117188 241.796875 174.070312 242.804688 C 173.070312 243.769531 171.773438 244.296875 170.390625 244.296875 C 170.328125 244.296875 170.261719 244.292969 170.195312 244.292969 Z M 170.195312 244.292969 " fill-opacity="1" fill-rule="nonzero" />
    <path fill="#3f3d56" d="M 101.878906 194.871094 L 103.046875 194.558594 C 106.238281 193.707031 109.347656 196.171875 109.25 199.472656 L 108.085938 239.132812 C 108.007812 241.730469 105.925781 243.828125 103.328125 243.917969 C 100.535156 244.015625 98.21875 241.78125 98.21875 238.988281 L 98.21875 199.636719 C 98.21875 197.402344 99.71875 195.445312 101.878906 194.871094 Z M 101.878906 194.871094 " fill-opacity="1" fill-rule="nonzero" />
    <path fill="#3f3d56" d="M 121.796875 238.820312 L 121.796875 197.667969 C 121.796875 194.761719 124.070312 192.433594 126.976562 192.359375 L 147.941406 191.847656 C 150.863281 191.800781 153.292969 194.089844 153.378906 197.003906 L 154.585938 238.664062 C 154.628906 240.113281 154.097656 241.480469 153.085938 242.519531 C 152.078125 243.558594 150.726562 244.128906 149.28125 244.128906 L 127.105469 244.128906 C 124.179688 244.128906 121.796875 241.746094 121.796875 238.820312 Z M 121.796875 238.820312 " fill-opacity="1" fill-rule="nonzero" />
    <path fill="#cccccc" d="M 245.71875 266.941406 L 262.152344 296.152344 L 264.039062 329.007812 L 277.125 329.839844 L 272.632812 290.914062 L 245.683594 253.484375 C 243.359375 257.671875 243.371094 262.765625 245.71875 266.941406 Z M 245.71875 266.941406 " fill-opacity="1" fill-rule="nonzero" />
    <path fill="#3f3d56" d="M 210.179688 320.332031 L 263.511719 319.605469 L 263.523438 320.351562 L 210.191406 321.082031 Z M 210.179688 320.332031 " fill-opacity="1" fill-rule="nonzero" />
    <path fill="#3f3d56" d="M 209.710938 313.394531 L 260.277344 313 L 260.285156 313.746094 L 209.714844 314.140625 Z M 209.710938 313.394531 " fill-opacity="1" fill-rule="nonzero" />
    <path fill="#3f3d56" d="M 209.28125 307.191406 L 257.652344 306.246094 L 257.667969 306.996094 L 209.296875 307.941406 Z M 209.28125 307.191406 " fill-opacity="1" fill-rule="nonzero" />
    <path fill="#3f3d56" d="M 209.699219 301.074219 L 256.152344 299.535156 L 256.175781 300.28125 L 209.726562 301.824219 Z M 209.699219 301.074219 " fill-opacity="1" fill-rule="nonzero" />
    <path fill="#3f3d56" d="M 209.273438 295.125 L 253.90625 293.554688 L 253.933594 294.304688 L 209.300781 295.875 Z M 209.273438 295.125 " fill-opacity="1" fill-rule="nonzero" />
    <path fill="#3f3d56" d="M 207.453125 288.292969 L 250.925781 288.292969 L 250.925781 289.042969 L 207.453125 289.042969 Z M 207.453125 288.292969 " fill-opacity="1" fill-rule="nonzero" />
    <path fill="#3f3d56" d="M 206.429688 283.535156 L 248.675781 283.042969 L 248.683594 283.789062 L 206.4375 284.285156 Z M 206.429688 283.535156 " fill-opacity="1" fill-rule="nonzero" />
    <path fill="#3f3d56" d="M 205.484375 279.164062 L 246.421875 277.804688 L 246.445312 278.554688 L 205.507812 279.914062 Z M 205.484375 279.164062 " fill-opacity="1" fill-rule="nonzero" />
    <path fill="#3f3d56" d="M 204.507812 273.304688 L 244.929688 272.59375 L 244.941406 273.339844 L 204.519531 274.050781 Z M 204.507812 273.304688 " fill-opacity="1" fill-rule="nonzero" />
    <path fill="#3f3d56" d="M 203.222656 268.617188 L 241.929688 267.410156 L 241.953125 268.15625 L 203.246094 269.367188 Z M 203.222656 268.617188 " fill-opacity="1" fill-rule="nonzero" />
    <path fill="#3f3d56" d="M 202.078125 263.21875 L 240.441406 262.84375 L 240.449219 263.589844 L 202.085938 263.964844 Z M 202.078125 263.21875 " fill-opacity="1" fill-rule="nonzero" />
    <path fill="#fc2c54" d="M 199.273438 247.429688 L 199.273438 196.664062 C 199.273438 193.738281 201.65625 191.355469 204.582031 191.355469 L 229.148438 191.355469 C 232.074219 191.355469 234.457031 193.738281 234.457031 196.664062 L 234.457031 247.429688 C 234.457031 250.355469 232.074219 252.738281 229.148438 252.738281 L 204.582031 252.738281 C 201.65625 252.738281 199.273438 250.355469 199.273438 247.429688 Z M 199.273438 247.429688 " fill-opacity="1" fill-rule="nonzero" />
    <path fill="#cccccc" d="M 142.050781 321.605469 L 98.566406 318.835938 L 98.21875 318.8125 L 98.21875 285.160156 C 98.21875 280.902344 101.679688 277.441406 105.9375 277.441406 L 148.886719 277.441406 C 153.144531 277.441406 156.605469 280.902344 156.605469 285.160156 L 156.605469 321.605469 Z M 142.050781 321.605469 " fill-opacity="1" fill-rule="nonzero" />
    <path fill="#3f3d56" d="M 202.269531 155.355469 L 202.269531 116.566406 C 202.269531 113.640625 204.648438 111.257812 207.578125 111.257812 L 215.671875 111.257812 C 218.601562 111.257812 220.980469 113.640625 220.980469 116.566406 L 220.980469 155.355469 C 220.980469 158.28125 218.601562 160.664062 215.671875 160.664062 L 207.578125 160.664062 C 204.648438 160.664062 202.269531 158.28125 202.269531 155.355469 Z M 202.269531 155.355469 " fill-opacity="1" fill-rule="nonzero" />
    <path fill="#cccccc" d="M 210.5 325.347656 L 208.257812 292.410156 L 201.519531 260.972656 L 199.648438 252.363281 C 195.800781 249.746094 190.625 252.65625 190.855469 257.300781 L 191.039062 260.972656 L 197.777344 292.410156 L 200.023438 325.347656 " fill-opacity="1" fill-rule="nonzero" />
    <g clip-path="url(#id2)">
        <path fill="#cccccc" d="M 73.515625 317.113281 L 76.0625 269.742188 C 76.0625 269.742188 159.601562 252.425781 159.601562 202.507812 C 159.601562 152.589844 23.089844 146.476562 9.335938 169.398438 C 9.199219 169.628906 9.0625 169.855469 8.925781 170.085938 C -8.058594 198.734375 1.53125 235.925781 30.4375 252.46875 C 40.320312 258.125 52.105469 262.96875 65.875 265.667969 L 64.90625 315.992188 " fill-opacity="1" fill-rule="nonzero" />
    </g>
    <g clip-path="url(#id3)">
        <path fill="#cccccc" d="M 19.292969 314.59375 L 19.386719 313.101562 L 700.488281 357.085938 L 700.394531 358.578125 Z M 19.292969 314.59375 " fill-opacity="1" fill-rule="nonzero" />
    </g>
</svg>