<?xml version="1.0" encoding="UTF-8" standalone="no"?>
<svg class="img-fluid" id="outputsvg" style="transform: matrix(1.88245, 0, 0, 1.88245, -21.4579, 102.304); transform-origin: 50% 50%; cursor: move; transition: transform 200ms ease-in-out 0s;" width="1600" height="1600" viewBox="0 0 16000 16000" version="1.1" sodipodi:docname="beta.svg" inkscape:version="1.1.2 (0a00cf5339, 2022-02-04, custom)" xmlns:inkscape="http://www.inkscape.org/namespaces/inkscape" xmlns:sodipodi="http://sodipodi.sourceforge.net/DTD/sodipodi-0.dtd" xmlns="http://www.w3.org/2000/svg" xmlns:svg="http://www.w3.org/2000/svg">
   <defs id="defs9" />
   <sodipodi:namedview id="namedview7" pagecolor="#ffffff" bordercolor="#666666" borderopacity="1.0" inkscape:pageshadow="2" inkscape:pageopacity="0.0" inkscape:pagecheckerboard="0" showgrid="false" inkscape:zoom="0.201875" inkscape:cx="636.53251" inkscape:cy="1448.9164" inkscape:window-width="1920" inkscape:window-height="1010" inkscape:window-x="-6" inkscape:window-y="-6" inkscape:window-maximized="1" inkscape:current-layer="outputsvg" />
   <g id="l66qy3xtQheBZJAHNOMwPZ1" fill="rgb(0,0,0)" style="transform:none;fill:#fc2c54;fill-opacity:1">
      <g id="g3" style="fill:#fc2c54;fill-opacity:1">
         <path id="p7V4Nr9SW" d="M3139 15216 c-132 -47 -209 -156 -209 -296 0 -101 25 -152 129 -264 168 -182 323 -410 446 -661 146 -296 218 -522 282 -885 15 -88 17 -444 23 -4645 6 -4196 7 -4560 23 -4675 70 -514 200 -952 412 -1385 416 -847 1065 -1455 1910 -1788 652 -257 1487 -351 2320 -261 864 93 1610 390 2180 868 94 79 289 272 375 371 351 407 598 915 685 1405 34 197 30 551 -11 830 -102 705 -428 1268 -1008 1745 -81 66 -105 91 -95 97 8 5 86 49 174 99 1041 588 1659 1391 1854 2411 39 204 53 350 58 614 6 276 -3 432 -37 657 -101 664 -384 1284 -812 1782 -657 762 -1641 1239 -2893 1400 -373 47 -1005 70 -1275 45 -498 -45 -1008 -180 -1473 -389 -87 -39 -161 -71 -163 -71 -2 0 -4 120 -4 268 0 573 -35 938 -125 1308 -139 577 -394 1039 -724 1315 -155 130 -52 119 -1104 119 -711 -1 -910 -4 -938 -14z m5217 -3810 c833 -125 1460 -521 1818 -1146 158 -277 257 -587 313 -980 25 -179 25 -798 0 -1015 -84 -718 -275 -1181 -647 -1569 -160 -166 -313 -288 -622 -494 -167 -112 -167 -112 -300 -83 -302 67 -563 95 -903 95 -380 0 -598 -36 -791 -129 -197 -95 -276 -252 -213 -422 77 -203 390 -304 904 -290 319 9 622 51 1031 142 109 25 202 41 205 37 27 -29 235 -341 295 -442 215 -360 330 -700 379 -1115 23 -191 23 -539 1 -704 -61 -457 -223 -811 -504 -1102 -174 -181 -325 -289 -567 -405 -280 -134 -651 -219 -875 -199 -515 45 -1063 358 -1401 800 -242 316 -396 737 -439 1200 -6 72 -10 1238 -10 3384 0 3274 0 3274 44 3366 163 345 502 659 938 870 227 109 438 174 688 210 122 18 513 13 656 -9z" style="fill:#fc2c54;fill-opacity:1" />
      </g>
   </g>
</svg>