<svg xmlns="http://www.w3.org/2000/svg" xmlns:xlink="http://www.w3.org/1999/xlink" width="500" zoomAndPan="magnify" viewBox="0 0 375 374.999991" height="500" preserveAspectRatio="xMidYMid meet" version="1.0"><path fill="#fc2c54" d="M 213.511719 190.496094 L 367.128906 36.871094 C 374.867188 29.144531 374.867188 16.605469 367.128906 8.878906 C 359.402344 1.152344 346.875 1.152344 339.148438 8.878906 L 185.53125 162.515625 L 35.839844 12.828125 C 28.113281 5.089844 15.585938 5.089844 7.859375 12.828125 C 0.125 20.542969 0.125 33.089844 7.859375 40.808594 L 157.53125 190.496094 L 11.785156 336.253906 C 4.058594 343.980469 4.058594 356.519531 11.785156 364.246094 C 15.648438 368.109375 20.71875 370.035156 25.777344 370.035156 C 30.835938 370.035156 35.902344 368.097656 39.765625 364.246094 L 185.511719 218.5 L 335.191406 368.167969 C 339.078125 372.03125 344.132812 373.96875 349.203125 373.96875 C 354.261719 373.96875 359.332031 372.03125 363.195312 368.167969 C 370.921875 360.453125 370.921875 347.914062 363.195312 340.1875 Z M 213.511719 190.496094 " fill-opacity="1" fill-rule="nonzero"/></svg>