<svg xmlns="http://www.w3.org/2000/svg" xmlns:xlink="http://www.w3.org/1999/xlink" width="500" zoomAndPan="magnify" viewBox="0 0 375 374.999991" height="500" preserveAspectRatio="xMidYMid meet" version="1.0"><defs><clipPath id="id1"><path d="M 3.046875 2 L 372 2 L 372 374 L 3.046875 374 Z M 3.046875 2 " clip-rule="nonzero"/></clipPath></defs><g clip-path="url(#id1)"><path fill="#fc254c" d="M 217.976562 187.078125 C 253.425781 172.980469 278.582031 138.40625 278.582031 98.007812 C 278.582031 45.128906 235.554688 2.109375 182.660156 2.109375 C 129.769531 2.109375 86.742188 45.128906 86.742188 98.007812 C 86.742188 139.53125 113.332031 174.878906 150.347656 188.179688 C 66.277344 205.308594 2.824219 279.800781 2.824219 368.832031 C 2.824219 371.417969 4.921875 373.511719 7.507812 373.511719 L 366.960938 373.511719 C 369.546875 373.511719 371.644531 371.417969 371.644531 368.832031 C 371.644531 277.648438 305.074219 201.757812 217.976562 187.078125 Z M 96.105469 98.007812 C 96.105469 50.292969 134.933594 11.472656 182.660156 11.472656 C 230.386719 11.472656 269.214844 50.292969 269.214844 98.007812 C 269.214844 145.71875 230.386719 184.535156 182.660156 184.535156 C 134.933594 184.535156 96.105469 145.71875 96.105469 98.007812 Z M 12.25 364.152344 C 14.746094 269.8125 92.28125 193.832031 187.234375 193.832031 C 282.1875 193.832031 359.726562 269.8125 362.21875 364.152344 Z M 12.25 364.152344 " fill-opacity="1" fill-rule="nonzero"/></g></svg>