<svg xmlns="http://www.w3.org/2000/svg" xmlns:xlink="http://www.w3.org/1999/xlink" width="500" zoomAndPan="magnify" viewBox="0 0 375 374.999991" height="500" preserveAspectRatio="xMidYMid meet" version="1.0"><defs><clipPath id="id1"><path d="M 17.109375 0 L 357.609375 0 L 357.609375 375 L 17.109375 375 Z M 17.109375 0 " clip-rule="nonzero"/></clipPath></defs><g clip-path="url(#id1)"><path fill="#fc254c" d="M 187.359375 0.0703125 C 131.097656 0.0703125 85.210938 45.996094 85.210938 102.304688 C 85.210938 158.613281 131.097656 204.539062 187.359375 204.539062 C 243.621094 204.539062 289.507812 158.613281 289.507812 102.304688 C 289.507812 45.996094 243.621094 0.0703125 187.359375 0.0703125 Z M 187.359375 204.539062 C 93.589844 204.539062 17.109375 281.082031 17.109375 374.929688 L 51.160156 374.929688 C 51.160156 299.453125 111.945312 238.617188 187.359375 238.617188 C 262.773438 238.617188 323.558594 299.453125 323.558594 374.929688 L 357.609375 374.929688 C 357.609375 281.082031 281.128906 204.539062 187.359375 204.539062 Z M 187.359375 34.148438 C 225.132812 34.148438 255.460938 64.5 255.460938 102.304688 C 255.460938 140.109375 225.132812 170.460938 187.359375 170.460938 C 149.585938 170.460938 119.257812 140.109375 119.257812 102.304688 C 119.257812 64.5 149.585938 34.148438 187.359375 34.148438 Z M 187.359375 34.148438 " fill-opacity="1" fill-rule="nonzero"/></g></svg>