<?xml version="1.0" encoding="UTF-8" standalone="no"?>
<svg
   version="1.1"
   id="svg2"
   xml:space="preserve"
   width="707.96002"
   height="666.65332"
   viewBox="0 0 707.96002 666.65332"
   sodipodi:docname="GitHub-Mark.svg"
   inkscape:version="1.1.2 (0a00cf5339, 2022-02-04, custom)"
   xmlns:inkscape="http://www.inkscape.org/namespaces/inkscape"
   xmlns:sodipodi="http://sodipodi.sourceforge.net/DTD/sodipodi-0.dtd"
   xmlns="http://www.w3.org/2000/svg"
   xmlns:svg="http://www.w3.org/2000/svg"
   xmlns:rdf="http://www.w3.org/1999/02/22-rdf-syntax-ns#"
   xmlns:cc="http://creativecommons.org/ns#"
   xmlns:dc="http://purl.org/dc/elements/1.1/"><metadata
     id="metadata8"><rdf:RDF><cc:Work
         rdf:about=""><dc:format>image/svg+xml</dc:format><dc:type
           rdf:resource="http://purl.org/dc/dcmitype/StillImage" /></cc:Work></rdf:RDF></metadata><defs
     id="defs6" /><sodipodi:namedview
     pagecolor="#ffffff"
     bordercolor="#666666"
     borderopacity="1"
     objecttolerance="10"
     gridtolerance="10"
     guidetolerance="10"
     inkscape:pageopacity="0"
     inkscape:pageshadow="2"
     inkscape:window-width="1907"
     inkscape:window-height="997"
     id="namedview4"
     inkscape:pagecheckerboard="0"
     showgrid="false"
     inkscape:zoom="0.9690194"
     inkscape:cx="260.05671"
     inkscape:cy="408.66055"
     inkscape:window-x="58"
     inkscape:window-y="40"
     inkscape:window-maximized="0"
     inkscape:current-layer="g12" /><g
     id="g10"
     inkscape:groupmode="layer"
     inkscape:label="ink_ext_XXXXXX"
     transform="matrix(1.3333333,0,0,-1.3333333,0,666.65333)"><g
       id="g12"
       transform="scale(0.1)"><path
         d="m 2667.6137,4983.2624 c -1404.5502,0 -2543.4964,-1138.6936 -2543.4964,-2543.4542 0,-1123.7834 728.78905,-2077.1943 1739.398,-2413.524753 127.1158,-23.5404752 173.784,55.184541 173.784,122.364813 0,60.65165 -2.3586,261.01286 -3.4538,473.54649 -707.6031,-153.86161 -856.9158,300.09952 -856.9158,300.09952 -115.7016,293.99223 -282.40948,372.16563 -282.40948,372.16563 -230.77129,157.8628 17.39528,154.6196 17.39528,154.6196 255.411,-17.9006 389.8977,-262.1079 389.8977,-262.1079 226.8541,-388.84488 595.0183,-276.42858 740.1613,-211.43859 22.8288,164.34919 88.7452,276.63909 161.4851,340.11269 -564.9453,64.3161 -1158.8265,282.4096 -1158.8265,1257.0065 0,277.6922 99.3593,504.5885 262.066,682.7106 -26.4089,64.1056 -113.4693,322.7598 24.6396,673.1078 0,0 213.5868,68.3593 699.6426,-260.7183 202.8885,56.3556 420.4764,84.6176 636.6324,85.5863 216.1559,-0.9687 433.9122,-29.2307 637.1796,-85.5863 485.4664,329.0776 698.7583,260.7183 698.7583,260.7183 138.4457,-350.348 51.3432,-609.0022 24.9345,-673.1078 163.0856,-178.1221 261.7711,-405.0184 261.7711,-682.7106 0,-976.9135 -595.0185,-1192.0165 -1161.3958,-1254.9847 91.2303,-78.9314 172.5204,-233.7196 172.5204,-471.01939 0,-340.28126 -2.9485,-614.18256 -2.9485,-697.99985 0,-67.685691 45.7837,-146.99196 174.7106,-122.019476 C 4483.2054,363.32999 5211.0678,1316.404 5211.0678,2439.8082 c 0,1404.7606 -1138.7777,2543.4542 -2543.4541,2543.4542"
         style="fill:#fc2c54;fill-opacity:1;fill-rule:evenodd;stroke:none;stroke-width:4.21193"
         id="path108" /><path
         d="m 1087.4684,1331.3984 c -5.6018,-12.6779 -25.4822,-16.4264 -43.5934,-7.7499 -18.4482,8.2975 -28.8095,25.5241 -22.8287,38.202 5.4755,13.0149 25.398,16.5951 43.8041,7.9607 18.4904,-8.3397 29.0201,-25.735 22.618,-38.4128 v 0"
         style="fill:#fc2c54;fill-opacity:1;fill-rule:nonzero;stroke:none;stroke-width:4.21193"
         id="path110" /><path
         d="m 1190.492,1216.4972 c -12.1304,-11.2459 -35.8434,-6.0231 -51.933,11.7511 -16.6371,17.7323 -19.7538,41.4455 -7.4551,52.8598 12.5094,11.2458 35.5066,5.9808 52.1857,-11.7513 16.6372,-17.9429 19.8803,-41.4875 7.2024,-52.8596 v 0"
         style="fill:#fc2c54;fill-opacity:1;fill-rule:nonzero;stroke:none;stroke-width:4.21193"
         id="path112" /><path
         d="m 1290.7779,1070.0065 c -15.584,-10.8246 -41.0663,-0.674 -56.8187,21.9441 -15.5843,22.6179 -15.5843,49.7427 0.3369,60.6095 15.7947,10.8668 40.8978,1.095 56.861,-21.3545 15.542,-22.9549 15.542,-50.1218 -0.3792,-61.1991 v 0"
         style="fill:#fc2c54;fill-opacity:1;fill-rule:nonzero;stroke:none;stroke-width:4.21193"
         id="path114" /><path
         d="m 1428.1709,928.48582 c -13.9415,-15.37354 -43.6356,-11.24584 -65.369,9.72958 -22.239,20.51195 -28.4306,49.61645 -14.4469,64.99 14.1099,15.4156 43.9724,11.0773 65.8744,-9.72949 22.0705,-20.4701 28.8095,-49.78504 13.9415,-64.99009 v 0"
         style="fill:#fc2c54;fill-opacity:1;fill-rule:nonzero;stroke:none;stroke-width:4.21193"
         id="path116" /><path
         d="m 1617.7075,846.31116 c -6.1495,-19.9223 -34.7484,-28.97799 -63.5579,-20.51206 -28.7675,8.71874 -47.5949,32.05278 -41.7823,52.18583 5.981,20.04871 34.7061,29.48351 63.7263,20.42772 28.7253,-8.67647 47.5949,-31.84214 41.6139,-52.10149 v 0"
         style="fill:#fc2c54;fill-opacity:1;fill-rule:nonzero;stroke:none;stroke-width:4.21193"
         id="path118" /><path
         d="m 1825.8606,831.06415 c 0.7162,-20.97553 -23.713,-38.37073 -53.9547,-38.70768 -30.4101,-0.71606 -55.0078,16.25807 -55.3446,36.89632 0,21.18606 23.8816,38.4128 54.2916,38.91821 30.2417,0.58977 55.0077,-16.25795 55.0077,-37.10685 v 0"
         style="fill:#fc2c54;fill-opacity:1;fill-rule:nonzero;stroke:none;stroke-width:4.21193"
         id="path120" /><path
         d="m 2019.567,864.04331 c 3.6223,-20.46989 -17.3952,-41.48737 -47.4262,-47.04708 -29.5256,-5.43342 -56.861,7.20238 -60.6095,27.5039 -3.6645,20.97531 17.7321,41.99268 47.2155,47.4262 30.0733,5.22277 56.9875,-7.07608 60.8202,-27.88302 v 0"
         style="fill:#fc2c54;fill-opacity:1;fill-rule:nonzero;stroke:none;stroke-width:4.21193"
         id="path122" /></g></g></svg>
