<svg xmlns="http://www.w3.org/2000/svg" xmlns:xlink="http://www.w3.org/1999/xlink" width="500" zoomAndPan="magnify" viewBox="0 0 375 374.999991" height="500" preserveAspectRatio="xMidYMid meet" version="1.0"><path fill="#fc2c54" d="M 187.5 0 C 84.101562 0 0 84.101562 0 187.5 C 0 290.898438 84.101562 375 187.5 375 C 290.898438 375 375 290.898438 375 187.5 C 375 84.101562 290.898438 0 187.5 0 Z M 187.5 348.226562 C 98.875 348.226562 26.773438 276.125 26.773438 187.5 C 26.773438 98.875 98.875 26.773438 187.5 26.773438 C 276.125 26.773438 348.226562 98.875 348.226562 187.5 C 348.226562 276.125 276.125 348.226562 187.5 348.226562 Z M 199.25 267.601562 C 199.25 275.148438 193.125 281.25 185.601562 281.25 C 178.074219 281.25 171.949219 275.125 171.949219 267.601562 C 171.949219 260.050781 178.074219 253.949219 185.601562 253.949219 C 193.125 253.949219 199.25 260.050781 199.25 267.601562 Z M 229.949219 109.675781 C 233.726562 116.773438 235.625 125.351562 235.625 135.398438 L 235.625 135.523438 C 235.625 141.574219 234.824219 147.023438 233.25 151.875 C 231.675781 156.726562 229.773438 160.925781 227.5 164.523438 C 225.25 168.101562 222.148438 172.425781 218.25 177.550781 C 214 183 210.550781 187.824219 207.925781 192.050781 C 205.273438 196.25 203.074219 201.324219 201.273438 207.25 C 199.5 213.148438 198.601562 219.976562 198.601562 227.726562 C 198.601562 227.726562 198.601562 227.726562 198.601562 227.75 L 198.601562 228.351562 L 198.5 228.351562 C 198.175781 235.25 192.574219 240.773438 185.601562 240.773438 C 178.625 240.773438 173.023438 235.25 172.699219 228.351562 L 172.574219 228.351562 L 172.574219 227.75 C 172.574219 218.726562 173.601562 210.699219 175.625 203.625 C 177.675781 196.574219 180.125 190.601562 183.023438 185.773438 C 185.925781 180.925781 189.699219 175.351562 194.375 169.050781 C 197.773438 164.375 200.449219 160.523438 202.425781 157.5 C 204.375 154.5 206 151.125 207.273438 147.425781 C 208.550781 143.726562 209.175781 139.75 209.175781 135.5 L 209.175781 135.375 C 209.175781 127.976562 207.273438 122.226562 203.5 118.148438 C 199.699219 114.074219 194.425781 112.023438 187.601562 112.023438 C 180.699219 112.023438 175.375 114.550781 171.574219 119.625 C 167.773438 124.675781 165.851562 131.851562 165.773438 141.125 L 165.773438 141.648438 L 165.699219 141.648438 C 165.476562 148.75 159.726562 154.449219 152.574219 154.449219 C 145.425781 154.449219 139.675781 148.75 139.449219 141.648438 L 139.375 141.648438 L 139.375 141 C 139.726562 129.773438 141.851562 120.175781 145.75 112.226562 C 149.675781 104.273438 155.148438 98.199219 162.226562 94.050781 C 169.273438 89.875 177.675781 87.800781 187.375 87.800781 C 197.5 87.800781 206.175781 89.675781 213.398438 93.425781 C 220.648438 97.148438 226.148438 102.574219 229.949219 109.675781 Z M 229.949219 109.675781 " fill-opacity="1" fill-rule="nonzero"/></svg>