<svg xmlns="http://www.w3.org/2000/svg" xmlns:xlink="http://www.w3.org/1999/xlink" width="500" zoomAndPan="magnify" viewBox="0 0 375 374.999991" height="500" preserveAspectRatio="xMidYMid meet" version="1.0"><defs><clipPath id="id1"><path d="M 4.503906 2.253906 L 375 2.253906 L 375 372.753906 L 4.503906 372.753906 Z M 4.503906 2.253906 " clip-rule="nonzero"/></clipPath></defs><g clip-path="url(#id1)"><path fill="#fc254c" d="M 189.753906 2.253906 C 87.621094 2.253906 4.503906 85.367188 4.503906 187.503906 C 4.503906 289.636719 87.621094 372.753906 189.753906 372.753906 C 291.890625 372.753906 375.003906 289.636719 375.003906 187.503906 C 375.003906 85.367188 291.890625 2.253906 189.753906 2.253906 Z M 189.753906 28.71875 C 277.625 28.71875 348.542969 99.632812 348.542969 187.503906 C 348.542969 275.371094 277.625 346.289062 189.753906 346.289062 C 101.886719 346.289062 30.96875 275.371094 30.96875 187.503906 C 30.96875 99.632812 101.886719 28.71875 189.753906 28.71875 Z M 189.753906 28.71875 " fill-opacity="1" fill-rule="nonzero"/></g><path fill="#fc254c" d="M 126.074219 134.4375 C 124.699219 141.605469 129.453125 148.496094 136.621094 149.875 C 143.789062 151.253906 150.75 146.496094 152.058594 139.328125 C 155.433594 121.480469 170.734375 108.042969 189.273438 108.042969 C 210.292969 108.042969 227.179688 125.0625 227.179688 146.636719 C 227.179688 168.273438 210.292969 185.296875 189.273438 185.296875 C 185.484375 185.503906 181.691406 184.816406 178.660156 185.230469 C 172.113281 186.125 167.21875 191.777344 167.289062 198.390625 L 167.496094 236.710938 C 167.5625 244.015625 173.492188 249.871094 180.796875 249.871094 C 188.101562 249.804688 194.027344 243.878906 193.960938 236.570312 L 193.820312 210.796875 C 227.109375 208.316406 253.640625 180.75 253.640625 146.636719 C 253.640625 111.003906 224.488281 81.578125 189.6875 81.578125 C 156.605469 81.578125 131.726562 104.386719 126.074219 134.4375 Z M 126.074219 134.4375 " fill-opacity="1" fill-rule="nonzero"/><path fill="#fc254c" d="M 193.0625 280.886719 C 193.0625 287.5 187.757812 292.878906 181.210938 292.878906 C 174.664062 292.878906 169.289062 287.5 169.289062 280.886719 C 169.289062 274.339844 174.664062 268.964844 181.210938 268.964844 C 187.757812 268.964844 193.0625 274.339844 193.0625 280.886719 Z M 193.0625 280.886719 " fill-opacity="1" fill-rule="nonzero"/></svg>