<svg xmlns="http://www.w3.org/2000/svg" xmlns:xlink="http://www.w3.org/1999/xlink" width="500" zoomAndPan="magnify" viewBox="0 0 375 374.999991" height="500" preserveAspectRatio="xMidYMid meet" version="1.0"><defs><clipPath id="id1"><path d="M 101.484375 0 L 273.234375 0 L 273.234375 172 L 101.484375 172 Z M 101.484375 0 " clip-rule="nonzero"/></clipPath><clipPath id="id2"><path d="M 188 172.40625 L 204 172.40625 L 204 375 L 188 375 Z M 188 172.40625 " clip-rule="nonzero"/></clipPath><clipPath id="id3"><path d="M 171 172.40625 L 188 172.40625 L 188 375 L 171 375 Z M 171 172.40625 " clip-rule="nonzero"/></clipPath></defs><path fill="#737373" d="M 187.359375 375 C 186.847656 375 186.339844 374.949219 185.835938 374.851562 C 185.335938 374.75 184.847656 374.601562 184.375 374.40625 C 183.902344 374.207031 183.453125 373.96875 183.027344 373.683594 C 182.601562 373.398438 182.207031 373.074219 181.84375 372.710938 C 181.480469 372.347656 181.160156 371.953125 180.875 371.527344 C 180.589844 371.101562 180.347656 370.652344 180.152344 370.175781 C 179.957031 369.703125 179.808594 369.214844 179.710938 368.710938 C 179.609375 368.207031 179.558594 367.699219 179.558594 367.1875 L 179.558594 164.0625 C 179.558594 163.550781 179.609375 163.042969 179.710938 162.539062 C 179.808594 162.035156 179.957031 161.546875 180.152344 161.074219 C 180.347656 160.597656 180.589844 160.148438 180.875 159.722656 C 181.160156 159.296875 181.480469 158.902344 181.84375 158.539062 C 182.207031 158.175781 182.601562 157.851562 183.027344 157.566406 C 183.453125 157.28125 183.902344 157.039062 184.375 156.84375 C 184.847656 156.648438 185.335938 156.5 185.835938 156.398438 C 186.339844 156.300781 186.847656 156.25 187.359375 156.25 C 187.871094 156.25 188.378906 156.300781 188.882812 156.398438 C 189.382812 156.5 189.871094 156.648438 190.34375 156.84375 C 190.816406 157.039062 191.265625 157.28125 191.691406 157.566406 C 192.117188 157.851562 192.511719 158.175781 192.875 158.539062 C 193.238281 158.902344 193.558594 159.296875 193.84375 159.722656 C 194.128906 160.148438 194.371094 160.597656 194.566406 161.074219 C 194.761719 161.546875 194.910156 162.035156 195.007812 162.539062 C 195.109375 163.042969 195.160156 163.550781 195.160156 164.0625 L 195.160156 367.1875 C 195.160156 367.699219 195.109375 368.207031 195.007812 368.710938 C 194.910156 369.214844 194.761719 369.703125 194.566406 370.175781 C 194.371094 370.652344 194.128906 371.101562 193.84375 371.527344 C 193.558594 371.953125 193.238281 372.347656 192.875 372.710938 C 192.511719 373.074219 192.117188 373.398438 191.691406 373.683594 C 191.265625 373.96875 190.816406 374.207031 190.34375 374.40625 C 189.871094 374.601562 189.382812 374.75 188.882812 374.851562 C 188.378906 374.949219 187.871094 375 187.359375 375 Z M 187.359375 375 " fill-opacity="1" fill-rule="nonzero"/><g clip-path="url(#id1)"><path fill="#fc2c54" d="M 273.15625 85.9375 C 273.15625 87.34375 273.121094 88.75 273.054688 90.152344 C 272.984375 91.558594 272.878906 92.960938 272.742188 94.359375 C 272.605469 95.761719 272.433594 97.15625 272.226562 98.546875 C 272.023438 99.9375 271.78125 101.324219 271.507812 102.703125 C 271.234375 104.082031 270.925781 105.453125 270.585938 106.820312 C 270.242188 108.183594 269.871094 109.539062 269.460938 110.882812 C 269.054688 112.230469 268.613281 113.566406 268.140625 114.890625 C 267.667969 116.214844 267.164062 117.523438 266.625 118.824219 C 266.089844 120.125 265.519531 121.410156 264.917969 122.679688 C 264.320312 123.953125 263.6875 125.207031 263.027344 126.449219 C 262.363281 127.6875 261.671875 128.910156 260.949219 130.117188 C 260.226562 131.324219 259.476562 132.511719 258.695312 133.683594 C 257.917969 134.851562 257.109375 136 256.273438 137.128906 C 255.4375 138.261719 254.570312 139.367188 253.679688 140.457031 C 252.789062 141.542969 251.875 142.609375 250.929688 143.648438 C 249.988281 144.691406 249.019531 145.710938 248.027344 146.703125 C 247.035156 147.699219 246.015625 148.667969 244.976562 149.613281 C 243.9375 150.558594 242.875 151.476562 241.789062 152.367188 C 240.703125 153.261719 239.597656 154.125 238.46875 154.964844 C 237.339844 155.800781 236.191406 156.609375 235.027344 157.390625 C 233.859375 158.171875 232.671875 158.925781 231.46875 159.648438 C 230.261719 160.371094 229.042969 161.066406 227.804688 161.726562 C 226.566406 162.390625 225.3125 163.023438 224.042969 163.625 C 222.773438 164.226562 221.488281 164.796875 220.191406 165.332031 C 218.894531 165.871094 217.585938 166.378906 216.261719 166.851562 C 214.941406 167.324219 213.609375 167.765625 212.265625 168.175781 C 210.921875 168.582031 209.570312 168.957031 208.207031 169.300781 C 206.84375 169.640625 205.476562 169.949219 204.097656 170.222656 C 202.71875 170.5 201.335938 170.738281 199.949219 170.945312 C 198.558594 171.152344 197.167969 171.324219 195.769531 171.460938 C 194.371094 171.597656 192.972656 171.703125 191.570312 171.769531 C 190.167969 171.839844 188.761719 171.875 187.359375 171.875 C 185.957031 171.875 184.550781 171.839844 183.148438 171.769531 C 181.746094 171.703125 180.347656 171.597656 178.949219 171.460938 C 177.550781 171.324219 176.160156 171.152344 174.769531 170.945312 C 173.382812 170.738281 172 170.5 170.621094 170.222656 C 169.242188 169.949219 167.875 169.640625 166.511719 169.300781 C 165.148438 168.957031 163.796875 168.582031 162.453125 168.175781 C 161.109375 167.765625 159.777344 167.324219 158.457031 166.851562 C 157.132812 166.378906 155.824219 165.871094 154.527344 165.332031 C 153.230469 164.796875 151.945312 164.226562 150.675781 163.625 C 149.40625 163.023438 148.152344 162.390625 146.914062 161.726562 C 145.675781 161.066406 144.457031 160.371094 143.25 159.648438 C 142.046875 158.925781 140.859375 158.171875 139.691406 157.390625 C 138.527344 156.609375 137.378906 155.800781 136.25 154.964844 C 135.121094 154.125 134.015625 153.261719 132.929688 152.367188 C 131.84375 151.476562 130.78125 150.558594 129.742188 149.613281 C 128.703125 148.667969 127.683594 147.699219 126.691406 146.703125 C 125.699219 145.710938 124.730469 144.691406 123.789062 143.648438 C 122.84375 142.609375 121.929688 141.542969 121.039062 140.457031 C 120.148438 139.367188 119.28125 138.261719 118.445312 137.128906 C 117.609375 136 116.800781 134.851562 116.023438 133.683594 C 115.242188 132.511719 114.492188 131.324219 113.769531 130.117188 C 113.046875 128.910156 112.355469 127.6875 111.691406 126.449219 C 111.03125 125.207031 110.398438 123.953125 109.800781 122.679688 C 109.199219 121.410156 108.628906 120.125 108.09375 118.824219 C 107.554688 117.523438 107.050781 116.214844 106.578125 114.890625 C 106.105469 113.566406 105.664062 112.230469 105.257812 110.882812 C 104.847656 109.539062 104.476562 108.183594 104.132812 106.820312 C 103.792969 105.453125 103.484375 104.082031 103.210938 102.703125 C 102.9375 101.324219 102.695312 99.9375 102.492188 98.546875 C 102.285156 97.15625 102.113281 95.761719 101.976562 94.359375 C 101.835938 92.960938 101.734375 91.558594 101.664062 90.152344 C 101.597656 88.75 101.5625 87.34375 101.5625 85.9375 C 101.5625 84.53125 101.597656 83.125 101.664062 81.722656 C 101.734375 80.316406 101.835938 78.914062 101.976562 77.515625 C 102.113281 76.113281 102.285156 74.71875 102.492188 73.328125 C 102.695312 71.9375 102.9375 70.550781 103.210938 69.171875 C 103.484375 67.792969 103.792969 66.421875 104.132812 65.054688 C 104.476562 63.691406 104.847656 62.335938 105.257812 60.992188 C 105.664062 59.644531 106.105469 58.308594 106.578125 56.984375 C 107.050781 55.660156 107.554688 54.351562 108.09375 53.050781 C 108.628906 51.75 109.199219 50.464844 109.800781 49.195312 C 110.398438 47.921875 111.03125 46.667969 111.691406 45.425781 C 112.355469 44.1875 113.046875 42.964844 113.769531 41.757812 C 114.492188 40.550781 115.242188 39.363281 116.023438 38.191406 C 116.800781 37.023438 117.609375 35.875 118.445312 34.746094 C 119.28125 33.613281 120.148438 32.507812 121.039062 31.417969 C 121.929688 30.332031 122.84375 29.265625 123.789062 28.226562 C 124.730469 27.183594 125.699219 26.164062 126.691406 25.171875 C 127.683594 24.175781 128.703125 23.207031 129.742188 22.261719 C 130.78125 21.316406 131.84375 20.398438 132.929688 19.507812 C 134.015625 18.613281 135.121094 17.75 136.25 16.910156 C 137.378906 16.074219 138.527344 15.265625 139.691406 14.484375 C 140.859375 13.703125 142.046875 12.949219 143.25 12.226562 C 144.457031 11.503906 145.675781 10.808594 146.914062 10.148438 C 148.152344 9.484375 149.40625 8.851562 150.675781 8.25 C 151.945312 7.648438 153.230469 7.078125 154.527344 6.542969 C 155.824219 6.003906 157.132812 5.496094 158.457031 5.023438 C 159.777344 4.550781 161.109375 4.109375 162.453125 3.699219 C 163.796875 3.292969 165.148438 2.917969 166.511719 2.574219 C 167.875 2.234375 169.242188 1.925781 170.621094 1.652344 C 172 1.375 173.382812 1.136719 174.769531 0.929688 C 176.160156 0.722656 177.550781 0.550781 178.949219 0.414062 C 180.347656 0.277344 181.746094 0.171875 183.148438 0.101562 C 184.550781 0.0351562 185.957031 0 187.359375 0 C 188.761719 0 190.167969 0.0351562 191.570312 0.101562 C 192.972656 0.171875 194.371094 0.277344 195.769531 0.414062 C 197.167969 0.550781 198.558594 0.722656 199.949219 0.929688 C 201.335938 1.136719 202.71875 1.375 204.097656 1.652344 C 205.476562 1.925781 206.84375 2.234375 208.207031 2.574219 C 209.570312 2.917969 210.921875 3.292969 212.265625 3.699219 C 213.609375 4.109375 214.941406 4.550781 216.261719 5.023438 C 217.585938 5.496094 218.894531 6.003906 220.191406 6.542969 C 221.488281 7.078125 222.773438 7.648438 224.042969 8.25 C 225.3125 8.851562 226.566406 9.484375 227.804688 10.148438 C 229.042969 10.808594 230.261719 11.503906 231.46875 12.226562 C 232.671875 12.949219 233.859375 13.703125 235.027344 14.484375 C 236.191406 15.265625 237.339844 16.074219 238.46875 16.910156 C 239.597656 17.75 240.703125 18.613281 241.789062 19.507812 C 242.875 20.398438 243.9375 21.316406 244.976562 22.261719 C 246.015625 23.207031 247.035156 24.175781 248.027344 25.171875 C 249.019531 26.164062 249.988281 27.183594 250.929688 28.226562 C 251.875 29.265625 252.789062 30.332031 253.679688 31.417969 C 254.570312 32.507812 255.4375 33.613281 256.273438 34.746094 C 257.109375 35.875 257.917969 37.023438 258.695312 38.191406 C 259.476562 39.363281 260.226562 40.550781 260.949219 41.757812 C 261.671875 42.964844 262.363281 44.1875 263.027344 45.425781 C 263.6875 46.667969 264.320312 47.921875 264.917969 49.195312 C 265.519531 50.464844 266.089844 51.75 266.625 53.050781 C 267.164062 54.351562 267.667969 55.660156 268.140625 56.984375 C 268.613281 58.308594 269.054688 59.644531 269.460938 60.992188 C 269.871094 62.335938 270.242188 63.691406 270.585938 65.054688 C 270.925781 66.421875 271.234375 67.792969 271.507812 69.171875 C 271.78125 70.550781 272.023438 71.9375 272.226562 73.328125 C 272.433594 74.71875 272.605469 76.113281 272.742188 77.515625 C 272.878906 78.914062 272.984375 80.316406 273.054688 81.722656 C 273.121094 83.125 273.15625 84.53125 273.15625 85.9375 Z M 273.15625 85.9375 " fill-opacity="1" fill-rule="nonzero"/></g><path fill="#ff2768" d="M 140.5625 93.75 C 140.050781 93.75 139.542969 93.699219 139.039062 93.601562 C 138.535156 93.5 138.050781 93.351562 137.574219 93.15625 C 137.101562 92.960938 136.652344 92.71875 136.226562 92.433594 C 135.800781 92.148438 135.40625 91.824219 135.046875 91.460938 C 134.683594 91.097656 134.359375 90.703125 134.074219 90.277344 C 133.792969 89.851562 133.550781 89.402344 133.355469 88.925781 C 133.160156 88.453125 133.011719 87.964844 132.910156 87.460938 C 132.8125 86.957031 132.761719 86.449219 132.761719 85.9375 C 132.761719 84.144531 132.847656 82.359375 133.023438 80.578125 C 133.199219 78.792969 133.460938 77.023438 133.808594 75.269531 C 134.160156 73.511719 134.59375 71.777344 135.113281 70.0625 C 135.632812 68.347656 136.234375 66.664062 136.917969 65.007812 C 137.601562 63.355469 138.363281 61.738281 139.207031 60.15625 C 140.050781 58.578125 140.96875 57.042969 141.960938 55.554688 C 142.957031 54.066406 144.019531 52.628906 145.15625 51.242188 C 146.289062 49.859375 147.488281 48.535156 148.753906 47.269531 C 150.015625 46 151.339844 44.800781 152.722656 43.664062 C 154.105469 42.527344 155.539062 41.460938 157.027344 40.464844 C 158.511719 39.472656 160.046875 38.550781 161.621094 37.707031 C 163.199219 36.863281 164.8125 36.097656 166.464844 35.414062 C 168.117188 34.726562 169.800781 34.125 171.511719 33.605469 C 173.222656 33.085938 174.953125 32.648438 176.707031 32.300781 C 178.460938 31.953125 180.226562 31.6875 182.007812 31.511719 C 183.789062 31.335938 185.570312 31.25 187.359375 31.25 C 187.871094 31.25 188.378906 31.300781 188.882812 31.398438 C 189.382812 31.5 189.871094 31.648438 190.34375 31.84375 C 190.816406 32.039062 191.265625 32.28125 191.691406 32.566406 C 192.117188 32.851562 192.511719 33.175781 192.875 33.539062 C 193.238281 33.902344 193.558594 34.296875 193.84375 34.722656 C 194.128906 35.148438 194.371094 35.597656 194.566406 36.074219 C 194.761719 36.546875 194.910156 37.035156 195.007812 37.539062 C 195.109375 38.042969 195.160156 38.550781 195.160156 39.0625 C 195.160156 39.574219 195.109375 40.082031 195.007812 40.585938 C 194.910156 41.089844 194.761719 41.578125 194.566406 42.050781 C 194.371094 42.527344 194.128906 42.976562 193.84375 43.402344 C 193.558594 43.828125 193.238281 44.222656 192.875 44.585938 C 192.511719 44.949219 192.117188 45.273438 191.691406 45.558594 C 191.265625 45.84375 190.816406 46.085938 190.34375 46.28125 C 189.871094 46.476562 189.382812 46.625 188.882812 46.726562 C 188.378906 46.824219 187.871094 46.875 187.359375 46.875 C 186.082031 46.875 184.808594 46.9375 183.535156 47.0625 C 182.265625 47.1875 181.003906 47.375 179.75 47.625 C 178.5 47.875 177.261719 48.1875 176.039062 48.558594 C 174.816406 48.929688 173.617188 49.359375 172.433594 49.847656 C 171.253906 50.339844 170.101562 50.882812 168.976562 51.488281 C 167.847656 52.089844 166.753906 52.746094 165.691406 53.457031 C 164.632812 54.167969 163.605469 54.929688 162.617188 55.742188 C 161.632812 56.554688 160.6875 57.410156 159.78125 58.316406 C 158.878906 59.222656 158.023438 60.167969 157.214844 61.15625 C 156.402344 62.144531 155.644531 63.171875 154.933594 64.234375 C 154.222656 65.300781 153.566406 66.394531 152.964844 67.523438 C 152.363281 68.652344 151.816406 69.808594 151.328125 70.988281 C 150.839844 72.171875 150.410156 73.375 150.039062 74.597656 C 149.667969 75.824219 149.359375 77.0625 149.109375 78.316406 C 148.859375 79.570312 148.671875 80.835938 148.546875 82.109375 C 148.421875 83.382812 148.359375 84.65625 148.359375 85.9375 C 148.359375 86.449219 148.3125 86.957031 148.210938 87.460938 C 148.109375 87.964844 147.964844 88.453125 147.765625 88.925781 C 147.570312 89.402344 147.332031 89.851562 147.046875 90.277344 C 146.761719 90.703125 146.4375 91.097656 146.078125 91.460938 C 145.714844 91.824219 145.320312 92.148438 144.894531 92.433594 C 144.46875 92.71875 144.019531 92.960938 143.546875 93.15625 C 143.074219 93.351562 142.585938 93.5 142.082031 93.601562 C 141.582031 93.699219 141.074219 93.75 140.5625 93.75 Z M 140.5625 93.75 " fill-opacity="1" fill-rule="nonzero"/><g clip-path="url(#id2)"><path fill="#737373" d="M 196.027344 172.40625 C 196.539062 172.40625 197.046875 172.457031 197.546875 172.558594 C 198.050781 172.65625 198.539062 172.804688 199.011719 173.003906 C 199.484375 173.199219 199.933594 173.4375 200.359375 173.722656 C 200.785156 174.007812 201.179688 174.332031 201.542969 174.695312 C 201.902344 175.058594 202.226562 175.453125 202.511719 175.878906 C 202.796875 176.304688 203.035156 176.757812 203.234375 177.230469 C 203.429688 177.703125 203.578125 178.191406 203.675781 178.695312 C 203.777344 179.199219 203.828125 179.707031 203.828125 180.21875 L 203.828125 383.34375 C 203.828125 383.859375 203.777344 384.367188 203.675781 384.867188 C 203.578125 385.371094 203.429688 385.859375 203.234375 386.335938 C 203.035156 386.808594 202.796875 387.257812 202.511719 387.683594 C 202.226562 388.113281 201.902344 388.507812 201.542969 388.871094 C 201.179688 389.230469 200.785156 389.554688 200.359375 389.839844 C 199.933594 390.125 199.484375 390.367188 199.011719 390.5625 C 198.539062 390.757812 198.050781 390.90625 197.546875 391.007812 C 197.046875 391.105469 196.539062 391.15625 196.027344 391.15625 C 195.515625 391.15625 195.007812 391.105469 194.503906 391.007812 C 194.003906 390.90625 193.515625 390.757812 193.042969 390.5625 C 192.570312 390.367188 192.121094 390.125 191.695312 389.839844 C 191.269531 389.554688 190.875 389.230469 190.511719 388.871094 C 190.148438 388.507812 189.828125 388.113281 189.542969 387.683594 C 189.257812 387.257812 189.015625 386.808594 188.820312 386.335938 C 188.625 385.859375 188.476562 385.371094 188.378906 384.867188 C 188.277344 384.367188 188.226562 383.859375 188.226562 383.34375 L 188.226562 180.21875 C 188.226562 179.707031 188.277344 179.199219 188.378906 178.695312 C 188.476562 178.191406 188.625 177.703125 188.820312 177.230469 C 189.015625 176.757812 189.257812 176.304688 189.542969 175.878906 C 189.824219 175.453125 190.148438 175.058594 190.511719 174.695312 C 190.875 174.332031 191.269531 174.007812 191.695312 173.722656 C 192.121094 173.4375 192.570312 173.199219 193.042969 173.003906 C 193.515625 172.804688 194.003906 172.65625 194.503906 172.558594 C 195.007812 172.457031 195.515625 172.40625 196.027344 172.40625 Z M 196.027344 172.40625 " fill-opacity="1" fill-rule="nonzero"/></g><g clip-path="url(#id3)"><path fill="#737373" d="M 179.492188 172.40625 C 180.003906 172.40625 180.511719 172.457031 181.015625 172.558594 C 181.515625 172.65625 182.003906 172.804688 182.476562 173.003906 C 182.949219 173.199219 183.398438 173.4375 183.824219 173.722656 C 184.25 174.007812 184.644531 174.332031 185.007812 174.695312 C 185.371094 175.058594 185.691406 175.453125 185.976562 175.878906 C 186.261719 176.304688 186.503906 176.757812 186.699219 177.230469 C 186.894531 177.703125 187.042969 178.191406 187.140625 178.695312 C 187.242188 179.199219 187.292969 179.707031 187.292969 180.21875 L 187.292969 383.34375 C 187.292969 383.859375 187.242188 384.367188 187.140625 384.867188 C 187.042969 385.371094 186.894531 385.859375 186.699219 386.335938 C 186.503906 386.808594 186.261719 387.257812 185.976562 387.683594 C 185.691406 388.113281 185.371094 388.507812 185.007812 388.871094 C 184.644531 389.230469 184.25 389.554688 183.824219 389.839844 C 183.398438 390.125 182.949219 390.367188 182.476562 390.5625 C 182.003906 390.757812 181.515625 390.90625 181.015625 391.007812 C 180.511719 391.105469 180.003906 391.15625 179.492188 391.15625 C 178.980469 391.15625 178.472656 391.105469 177.972656 391.007812 C 177.46875 390.90625 176.980469 390.757812 176.507812 390.5625 C 176.035156 390.367188 175.585938 390.125 175.160156 389.839844 C 174.734375 389.554688 174.339844 389.230469 173.976562 388.871094 C 173.613281 388.507812 173.292969 388.113281 173.007812 387.683594 C 172.722656 387.257812 172.484375 386.808594 172.285156 386.335938 C 172.089844 385.859375 171.941406 385.371094 171.84375 384.867188 C 171.742188 384.367188 171.691406 383.859375 171.691406 383.34375 L 171.691406 180.21875 C 171.691406 179.707031 171.742188 179.199219 171.84375 178.695312 C 171.941406 178.191406 172.089844 177.703125 172.285156 177.230469 C 172.484375 176.757812 172.722656 176.304688 173.007812 175.878906 C 173.292969 175.453125 173.613281 175.058594 173.976562 174.695312 C 174.339844 174.332031 174.734375 174.007812 175.160156 173.722656 C 175.585938 173.4375 176.035156 173.199219 176.507812 173.003906 C 176.980469 172.804688 177.46875 172.65625 177.972656 172.558594 C 178.472656 172.457031 178.980469 172.40625 179.492188 172.40625 Z M 179.492188 172.40625 " fill-opacity="1" fill-rule="nonzero"/></g></svg>