<svg xmlns="http://www.w3.org/2000/svg" xmlns:xlink="http://www.w3.org/1999/xlink" width="500" zoomAndPan="magnify" viewBox="0 0 375 374.999991" height="500" preserveAspectRatio="xMidYMid meet" version="1.0"><path fill="#fc2c54" d="M 187.566406 230.679688 C 176.148438 230.679688 165.160156 226.117188 157.070312 218.0625 C 148.980469 209.972656 144.453125 198.984375 144.453125 187.566406 C 144.453125 176.113281 148.980469 165.160156 157.070312 157.070312 C 165.160156 148.980469 176.148438 144.453125 187.566406 144.453125 C 198.984375 144.453125 209.972656 148.980469 218.0625 157.070312 C 226.152344 165.160156 230.679688 176.113281 230.679688 187.566406 C 230.679688 198.984375 226.152344 209.972656 218.0625 218.0625 C 209.972656 226.117188 198.984375 230.679688 187.566406 230.679688 Z M 187.566406 135.832031 C 173.851562 135.832031 160.699219 141.289062 150.980469 150.980469 C 141.289062 160.667969 135.832031 173.851562 135.832031 187.566406 C 135.832031 201.28125 141.289062 214.433594 150.980469 224.15625 C 160.699219 233.875 173.851562 239.300781 187.566406 239.300781 C 201.28125 239.300781 214.433594 233.875 224.15625 224.15625 C 233.875 214.433594 239.300781 201.28125 239.300781 187.566406 C 239.300781 173.851562 233.875 160.667969 224.15625 150.980469 C 214.433594 141.289062 201.28125 135.832031 187.566406 135.832031 " fill-opacity="1" fill-rule="nonzero"/><path fill="#fc2c54" d="M 191.894531 301.691406 L 191.894531 278.121094 C 191.894531 275.722656 189.964844 273.792969 187.566406 273.792969 C 185.167969 273.792969 183.273438 275.722656 183.273438 278.121094 L 183.273438 301.691406 C 154.472656 300.59375 127.175781 288.640625 106.832031 268.300781 C 86.460938 247.957031 74.539062 220.660156 73.441406 191.894531 L 97.011719 191.894531 C 99.410156 191.894531 101.339844 189.929688 101.339844 187.566406 C 101.339844 185.167969 99.410156 183.238281 97.011719 183.238281 L 73.441406 183.238281 C 74.539062 154.472656 86.460938 127.175781 106.832031 106.832031 C 127.175781 86.460938 154.472656 74.539062 183.273438 73.441406 L 183.273438 97.011719 C 183.273438 99.410156 185.167969 101.339844 187.566406 101.339844 C 189.964844 101.339844 191.894531 99.410156 191.894531 97.011719 L 191.894531 73.441406 C 220.660156 74.539062 247.957031 86.460938 268.300781 106.832031 C 288.675781 127.175781 300.59375 154.472656 301.691406 183.238281 L 278.121094 183.238281 C 275.722656 183.238281 273.792969 185.167969 273.792969 187.566406 C 273.792969 189.929688 275.722656 191.894531 278.121094 191.894531 L 301.691406 191.894531 C 300.59375 220.660156 288.675781 247.957031 268.300781 268.300781 C 247.957031 288.640625 220.660156 300.59375 191.894531 301.691406 Z M 370.839844 183.238281 L 310.445312 183.238281 C 309.347656 152.175781 296.464844 122.679688 274.492188 100.707031 C 252.484375 78.703125 222.957031 65.882812 191.894531 64.820312 L 191.894531 4.328125 C 191.894531 1.929688 189.929688 0 187.566406 0 C 185.167969 0 183.273438 1.929688 183.273438 4.328125 L 183.273438 64.6875 C 152.175781 65.785156 122.679688 78.636719 100.707031 100.640625 C 78.703125 122.648438 65.882812 152.175781 64.820312 183.238281 L 4.328125 183.238281 C 1.929688 183.238281 0 185.167969 0 187.566406 C 0 189.929688 1.929688 191.894531 4.328125 191.894531 L 64.6875 191.894531 C 65.785156 222.957031 78.636719 252.453125 100.640625 274.457031 C 122.648438 296.429688 152.175781 309.25 183.273438 310.3125 L 183.273438 370.707031 C 183.273438 373.070312 185.167969 375 187.566406 375 C 189.929688 375 191.894531 373.070312 191.894531 370.707031 L 191.894531 310.3125 C 222.921875 309.214844 252.417969 296.363281 274.390625 274.390625 C 296.363281 252.417969 309.214844 222.921875 310.3125 191.894531 L 370.671875 191.894531 C 373.070312 191.894531 375 189.964844 375 187.566406 C 375 185.167969 373.070312 183.273438 370.671875 183.273438 L 370.839844 183.238281 " fill-opacity="1" fill-rule="nonzero"/></svg>