<svg xmlns="http://www.w3.org/2000/svg" xmlns:xlink="http://www.w3.org/1999/xlink" width="500" zoomAndPan="magnify" viewBox="0 0 375 374.999991" height="500" preserveAspectRatio="xMidYMid meet" version="1.0"><path fill="#fc254c" d="M 187.925781 223.265625 C 178.558594 223.265625 169.554688 219.546875 162.945312 212.902344 C 156.304688 206.261719 152.582031 197.292969 152.582031 187.925781 C 152.582031 178.558594 156.304688 169.554688 162.945312 162.945312 C 169.554688 156.304688 178.558594 152.582031 187.925781 152.582031 C 197.292969 152.582031 206.292969 156.304688 212.902344 162.945312 C 219.546875 169.554688 223.265625 178.558594 223.265625 187.925781 C 223.265625 197.292969 219.515625 206.261719 212.902344 212.902344 C 206.261719 219.515625 197.292969 223.265625 187.925781 223.265625 Z M 187.925781 131.789062 C 173.042969 131.789062 158.761719 137.703125 148.230469 148.230469 C 137.703125 158.761719 131.789062 173.042969 131.789062 187.925781 C 131.789062 202.804688 137.703125 217.089844 148.230469 227.585938 C 158.761719 238.148438 173.042969 244.027344 187.925781 244.027344 C 202.804688 244.027344 217.089844 238.148438 227.617188 227.585938 C 238.148438 217.089844 244.027344 202.804688 244.027344 187.925781 C 244.027344 173.042969 238.113281 158.792969 227.585938 148.265625 C 217.054688 137.734375 202.804688 131.824219 187.925781 131.789062 " fill-opacity="1" fill-rule="nonzero"/><path fill="#fc254c" d="M 198.320312 291.292969 L 198.320312 275.21875 C 198.320312 271.53125 196.328125 268.078125 193.105469 266.214844 C 189.917969 264.355469 185.964844 264.355469 182.742188 266.214844 C 179.519531 268.078125 177.527344 271.53125 177.527344 275.21875 L 177.527344 291.292969 C 153.679688 288.902344 131.390625 278.339844 114.449219 261.398438 C 97.511719 244.460938 86.949219 222.171875 84.554688 198.320312 L 100.632812 198.320312 C 104.351562 198.320312 107.773438 196.328125 109.632812 193.105469 C 111.496094 189.917969 111.496094 185.933594 109.632812 182.742188 C 107.773438 179.519531 104.351562 177.527344 100.632812 177.527344 L 84.554688 177.527344 C 86.949219 153.679688 97.511719 131.390625 114.449219 114.449219 C 131.390625 97.511719 153.679688 86.949219 177.527344 84.554688 L 177.527344 100.632812 C 177.527344 104.320312 179.519531 107.773438 182.742188 109.632812 C 185.964844 111.496094 189.917969 111.496094 193.105469 109.632812 C 196.328125 107.773438 198.320312 104.320312 198.320312 100.632812 L 198.320312 84.554688 C 222.171875 86.949219 244.460938 97.511719 261.398438 114.449219 C 278.339844 131.390625 288.9375 153.679688 291.292969 177.527344 L 275.25 177.527344 C 271.53125 177.527344 268.078125 179.519531 266.25 182.742188 C 264.355469 185.933594 264.355469 189.917969 266.25 193.105469 C 268.078125 196.328125 271.53125 198.320312 275.25 198.320312 L 291.292969 198.320312 C 288.9375 222.171875 278.339844 244.460938 261.398438 261.398438 C 244.460938 278.339844 222.171875 288.902344 198.320312 291.292969 Z M 364.601562 177.527344 L 312.1875 177.527344 C 309.730469 148.164062 296.941406 120.59375 276.082031 99.769531 C 255.253906 78.910156 227.683594 66.121094 198.320312 63.664062 L 198.320312 11.246094 C 198.320312 7.527344 196.328125 4.105469 193.105469 2.246094 C 189.917969 0.386719 185.933594 0.386719 182.742188 2.246094 C 179.519531 4.105469 177.527344 7.527344 177.527344 11.246094 L 177.527344 63.664062 C 148.164062 66.121094 120.59375 78.910156 99.769531 99.769531 C 78.910156 120.59375 66.121094 148.164062 63.664062 177.527344 L 11.246094 177.527344 C 7.527344 177.527344 4.105469 179.519531 2.246094 182.742188 C 0.386719 185.933594 0.386719 189.917969 2.246094 193.105469 C 4.105469 196.328125 7.527344 198.320312 11.246094 198.320312 L 63.664062 198.320312 C 66.121094 227.683594 78.910156 255.253906 99.769531 276.082031 C 120.59375 296.941406 148.164062 309.730469 177.527344 312.1875 L 177.527344 364.601562 C 177.527344 368.324219 179.519531 371.746094 182.742188 373.605469 C 185.933594 375.464844 189.917969 375.464844 193.105469 373.605469 C 196.328125 371.746094 198.320312 368.324219 198.320312 364.601562 L 198.320312 312.1875 C 227.683594 309.730469 255.253906 296.941406 276.082031 276.082031 C 296.941406 255.253906 309.730469 227.683594 312.1875 198.320312 L 364.601562 198.320312 C 368.324219 198.320312 371.746094 196.328125 373.605469 193.105469 C 375.464844 189.917969 375.464844 185.933594 373.605469 182.742188 C 371.746094 179.519531 368.324219 177.527344 364.601562 177.527344 " fill-opacity="1" fill-rule="nonzero"/></svg>