<svg xmlns="http://www.w3.org/2000/svg" xmlns:xlink="http://www.w3.org/1999/xlink" width="500" zoomAndPan="magnify" viewBox="0 0 375 374.999991" height="500" preserveAspectRatio="xMidYMid meet" version="1.0"><defs><clipPath id="id1"><path d="M 45.46875 0 L 329.71875 0 L 329.71875 375 L 45.46875 375 Z M 45.46875 0 " clip-rule="nonzero"/></clipPath></defs><g clip-path="url(#id1)"><path fill="#fc254c" d="M 187.589844 10.292969 C 114.996094 10.292969 55.9375 69.3125 55.9375 141.855469 C 55.9375 201.21875 92.511719 258.886719 123.191406 296.804688 C 150.644531 330.734375 178.332031 355.265625 187.585938 363.144531 C 196.859375 355.25 224.648438 330.621094 252.113281 296.644531 C 282.734375 258.761719 319.238281 201.160156 319.238281 141.855469 C 319.238281 69.3125 260.179688 10.292969 187.589844 10.292969 Z M 187.589844 375 C 186.441406 375 185.300781 374.621094 184.355469 373.859375 C 184.011719 373.582031 149.332031 345.484375 115.183594 303.277344 C 95.074219 278.421875 79.035156 253.566406 67.511719 229.40625 C 52.996094 198.960938 45.636719 169.503906 45.636719 141.855469 C 45.636719 122.707031 49.390625 104.128906 56.792969 86.636719 C 63.945312 69.746094 74.179688 54.578125 87.214844 41.550781 C 100.25 28.523438 115.429688 18.292969 132.332031 11.148438 C 149.835938 3.753906 168.425781 0 187.589844 0 C 206.75 0 225.339844 3.753906 242.84375 11.148438 C 259.746094 18.292969 274.925781 28.523438 287.960938 41.550781 C 300.996094 54.578125 311.230469 69.746094 318.378906 86.636719 C 325.785156 104.128906 329.539062 122.707031 329.539062 141.855469 C 329.539062 169.503906 322.175781 198.960938 307.664062 229.40625 C 296.144531 253.566406 280.105469 278.421875 259.992188 303.277344 C 225.84375 345.484375 191.164062 373.582031 190.820312 373.859375 C 189.875 374.621094 188.730469 375 187.589844 375 " fill-opacity="1" fill-rule="nonzero"/></g><path fill="#fc254c" d="M 187.589844 82.851562 C 152.128906 82.851562 123.28125 111.679688 123.28125 147.117188 C 123.28125 182.554688 152.128906 211.382812 187.589844 211.382812 C 223.046875 211.382812 251.894531 182.554688 251.894531 147.117188 C 251.894531 111.679688 223.046875 82.851562 187.589844 82.851562 Z M 187.589844 221.675781 C 167.660156 221.675781 148.921875 213.921875 134.832031 199.839844 C 120.738281 185.753906 112.976562 167.03125 112.976562 147.117188 C 112.976562 127.199219 120.738281 108.476562 134.832031 94.394531 C 148.921875 80.3125 167.660156 72.558594 187.589844 72.558594 C 207.515625 72.558594 226.253906 80.3125 240.34375 94.394531 C 254.4375 108.476562 262.195312 127.199219 262.195312 147.117188 C 262.195312 167.03125 254.4375 185.753906 240.34375 199.839844 C 226.253906 213.921875 207.515625 221.675781 187.589844 221.675781 " fill-opacity="1" fill-rule="nonzero"/><path fill="#fc254c" d="M 189.421875 189.078125 C 186.578125 189.078125 184.273438 186.773438 184.273438 183.929688 L 184.273438 137.019531 L 171.441406 143.105469 C 168.871094 144.320312 165.796875 143.226562 164.578125 140.660156 C 163.359375 138.089844 164.457031 135.019531 167.027344 133.800781 L 187.214844 124.230469 C 188.8125 123.476562 190.683594 123.585938 192.175781 124.53125 C 193.667969 125.476562 194.574219 127.117188 194.574219 128.882812 L 194.574219 183.929688 C 194.574219 186.773438 192.269531 189.078125 189.421875 189.078125 " fill-opacity="1" fill-rule="nonzero"/><path fill="#fc254c" d="M 205.945312 189.078125 L 172.902344 189.078125 C 170.058594 189.078125 167.753906 186.773438 167.753906 183.929688 C 167.753906 181.085938 170.058594 178.78125 172.902344 178.78125 L 205.945312 178.78125 C 208.789062 178.78125 211.09375 181.085938 211.09375 183.929688 C 211.09375 186.773438 208.789062 189.078125 205.945312 189.078125 " fill-opacity="1" fill-rule="nonzero"/><path fill="#fc254c" d="M 195.832031 109.414062 C 195.832031 113.792969 192.277344 117.34375 187.894531 117.34375 C 183.507812 117.34375 179.953125 113.792969 179.953125 109.414062 C 179.953125 105.03125 183.507812 101.480469 187.894531 101.480469 C 192.277344 101.480469 195.832031 105.03125 195.832031 109.414062 " fill-opacity="1" fill-rule="nonzero"/></svg>