<svg xmlns="http://www.w3.org/2000/svg" xmlns:xlink="http://www.w3.org/1999/xlink" width="500" zoomAndPan="magnify" viewBox="0 0 375 374.999991" height="500" preserveAspectRatio="xMidYMid meet" version="1.0"><defs><clipPath id="id1"><path d="M 272 53.90625 L 375 53.90625 L 375 202 L 272 202 Z M 272 53.90625 " clip-rule="nonzero"/></clipPath><clipPath id="id2"><path d="M 0 93 L 160 93 L 160 320.90625 L 0 320.90625 Z M 0 93 " clip-rule="nonzero"/></clipPath></defs><path fill="#fc254c" d="M 113.636719 173.097656 C 113.636719 171.980469 113.582031 170.867188 113.472656 169.757812 C 113.363281 168.648438 113.199219 167.542969 112.980469 166.449219 C 112.761719 165.355469 112.492188 164.273438 112.167969 163.207031 C 111.84375 162.140625 111.46875 161.089844 111.042969 160.058594 C 110.613281 159.027344 110.136719 158.019531 109.609375 157.035156 C 109.085938 156.054688 108.511719 155.097656 107.890625 154.167969 C 107.269531 153.242188 106.605469 152.347656 105.898438 151.484375 C 105.191406 150.621094 104.441406 149.796875 103.652344 149.007812 C 102.863281 148.21875 102.035156 147.46875 101.171875 146.761719 C 100.308594 146.054688 99.414062 145.390625 98.484375 144.769531 C 97.558594 144.152344 96.601562 143.578125 95.617188 143.050781 C 94.632812 142.527344 93.621094 142.050781 92.589844 141.621094 C 91.558594 141.195312 90.511719 140.820312 89.441406 140.496094 C 88.371094 140.171875 87.292969 139.902344 86.195312 139.683594 C 85.101562 139.464844 84 139.300781 82.886719 139.191406 C 81.777344 139.082031 80.660156 139.027344 79.546875 139.027344 C 78.429688 139.027344 77.316406 139.082031 76.203125 139.191406 C 75.09375 139.300781 73.988281 139.464844 72.894531 139.683594 C 71.800781 139.902344 70.71875 140.171875 69.648438 140.496094 C 68.582031 140.820312 67.53125 141.195312 66.5 141.621094 C 65.46875 142.050781 64.460938 142.527344 63.476562 143.050781 C 62.492188 143.578125 61.535156 144.152344 60.605469 144.769531 C 59.675781 145.390625 58.78125 146.054688 57.917969 146.761719 C 57.054688 147.46875 56.230469 148.21875 55.441406 149.007812 C 54.648438 149.796875 53.902344 150.621094 53.191406 151.484375 C 52.484375 152.347656 51.820312 153.242188 51.199219 154.167969 C 50.578125 155.097656 50.007812 156.054688 49.480469 157.035156 C 48.953125 158.019531 48.476562 159.027344 48.050781 160.058594 C 47.621094 161.089844 47.246094 162.140625 46.921875 163.207031 C 46.597656 164.273438 46.328125 165.355469 46.109375 166.449219 C 45.890625 167.542969 45.726562 168.648438 45.617188 169.757812 C 45.507812 170.867188 45.453125 171.980469 45.453125 173.097656 C 45.453125 174.210938 45.507812 175.324219 45.617188 176.433594 C 45.726562 177.546875 45.890625 178.648438 46.109375 179.742188 C 46.328125 180.835938 46.597656 181.917969 46.921875 182.984375 C 47.246094 184.054688 47.621094 185.101562 48.050781 186.132812 C 48.476562 187.164062 48.953125 188.171875 49.480469 189.15625 C 50.007812 190.140625 50.578125 191.09375 51.199219 192.023438 C 51.820312 192.949219 52.484375 193.84375 53.191406 194.707031 C 53.902344 195.570312 54.648438 196.394531 55.441406 197.183594 C 56.230469 197.972656 57.054688 198.722656 57.917969 199.429688 C 58.78125 200.136719 59.675781 200.800781 60.605469 201.421875 C 61.535156 202.042969 62.492188 202.613281 63.476562 203.140625 C 64.460938 203.667969 65.46875 204.144531 66.5 204.570312 C 67.53125 204.996094 68.582031 205.371094 69.648438 205.695312 C 70.71875 206.019531 71.800781 206.289062 72.894531 206.507812 C 73.988281 206.726562 75.09375 206.890625 76.203125 207 C 77.316406 207.109375 78.429688 207.164062 79.546875 207.164062 C 80.660156 207.160156 81.773438 207.105469 82.886719 206.996094 C 83.996094 206.886719 85.097656 206.722656 86.195312 206.503906 C 87.289062 206.285156 88.371094 206.011719 89.4375 205.6875 C 90.503906 205.363281 91.554688 204.988281 92.585938 204.558594 C 93.617188 204.132812 94.625 203.65625 95.609375 203.128906 C 96.59375 202.601562 97.546875 202.03125 98.476562 201.410156 C 99.40625 200.789062 100.300781 200.125 101.164062 199.417969 C 102.023438 198.710938 102.851562 197.964844 103.640625 197.175781 C 104.429688 196.386719 105.179688 195.558594 105.886719 194.699219 C 106.59375 193.835938 107.257812 192.941406 107.878906 192.015625 C 108.5 191.085938 109.074219 190.132812 109.601562 189.148438 C 110.125 188.164062 110.605469 187.15625 111.03125 186.128906 C 111.460938 185.097656 111.835938 184.046875 112.160156 182.980469 C 112.484375 181.914062 112.757812 180.832031 112.976562 179.738281 C 113.195312 178.644531 113.359375 177.542969 113.46875 176.433594 C 113.578125 175.324219 113.636719 174.210938 113.636719 173.097656 Z M 56.816406 173.097656 C 56.816406 172.351562 56.855469 171.609375 56.925781 170.871094 C 57 170.128906 57.109375 169.394531 57.253906 168.664062 C 57.398438 167.9375 57.582031 167.214844 57.796875 166.503906 C 58.011719 165.792969 58.261719 165.09375 58.546875 164.40625 C 58.832031 163.71875 59.152344 163.046875 59.5 162.390625 C 59.851562 161.734375 60.234375 161.097656 60.648438 160.476562 C 61.0625 159.859375 61.503906 159.261719 61.976562 158.6875 C 62.449219 158.113281 62.949219 157.5625 63.476562 157.035156 C 64 156.511719 64.550781 156.011719 65.128906 155.539062 C 65.703125 155.066406 66.300781 154.625 66.917969 154.210938 C 67.539062 153.800781 68.175781 153.417969 68.832031 153.066406 C 69.488281 152.714844 70.160156 152.398438 70.847656 152.113281 C 71.535156 151.828125 72.234375 151.578125 72.949219 151.363281 C 73.660156 151.148438 74.382812 150.964844 75.113281 150.820312 C 75.839844 150.675781 76.578125 150.566406 77.316406 150.496094 C 78.058594 150.421875 78.800781 150.386719 79.546875 150.386719 C 80.289062 150.386719 81.03125 150.421875 81.773438 150.492188 C 82.515625 150.566406 83.25 150.675781 83.980469 150.820312 C 84.710938 150.964844 85.429688 151.148438 86.144531 151.363281 C 86.855469 151.578125 87.554688 151.828125 88.242188 152.113281 C 88.929688 152.398438 89.601562 152.714844 90.257812 153.066406 C 90.914062 153.417969 91.554688 153.800781 92.171875 154.210938 C 92.789062 154.625 93.386719 155.066406 93.964844 155.539062 C 94.539062 156.011719 95.089844 156.511719 95.617188 157.035156 C 96.140625 157.5625 96.640625 158.113281 97.113281 158.6875 C 97.585938 159.261719 98.027344 159.859375 98.441406 160.476562 C 98.855469 161.097656 99.238281 161.734375 99.589844 162.390625 C 99.941406 163.046875 100.257812 163.71875 100.542969 164.40625 C 100.828125 165.09375 101.078125 165.792969 101.292969 166.503906 C 101.511719 167.214844 101.691406 167.9375 101.835938 168.664062 C 101.980469 169.394531 102.089844 170.128906 102.164062 170.871094 C 102.234375 171.609375 102.273438 172.351562 102.273438 173.097656 C 102.273438 173.839844 102.234375 174.582031 102.164062 175.320312 C 102.089844 176.0625 101.980469 176.796875 101.835938 177.527344 C 101.691406 178.257812 101.511719 178.976562 101.292969 179.6875 C 101.078125 180.402344 100.828125 181.101562 100.542969 181.789062 C 100.257812 182.472656 99.941406 183.144531 99.589844 183.800781 C 99.238281 184.457031 98.855469 185.09375 98.441406 185.714844 C 98.027344 186.332031 97.585938 186.929688 97.113281 187.503906 C 96.640625 188.078125 96.140625 188.628906 95.617188 189.15625 C 95.089844 189.679688 94.539062 190.179688 93.964844 190.652344 C 93.386719 191.125 92.789062 191.566406 92.171875 191.980469 C 91.554688 192.394531 90.914062 192.773438 90.257812 193.125 C 89.601562 193.476562 88.929688 193.792969 88.242188 194.078125 C 87.554688 194.363281 86.855469 194.613281 86.144531 194.828125 C 85.429688 195.046875 84.710938 195.226562 83.980469 195.371094 C 83.25 195.515625 82.515625 195.625 81.773438 195.699219 C 81.03125 195.769531 80.289062 195.808594 79.546875 195.808594 C 78.800781 195.804688 78.058594 195.769531 77.320312 195.695312 C 76.578125 195.621094 75.84375 195.511719 75.113281 195.367188 C 74.382812 195.222656 73.664062 195.039062 72.949219 194.824219 C 72.238281 194.605469 71.539062 194.355469 70.851562 194.070312 C 70.164062 193.785156 69.492188 193.46875 68.835938 193.117188 C 68.179688 192.765625 67.542969 192.386719 66.925781 191.972656 C 66.304688 191.558594 65.710938 191.117188 65.132812 190.644531 C 64.558594 190.171875 64.007812 189.671875 63.484375 189.148438 C 62.957031 188.621094 62.457031 188.070312 61.984375 187.496094 C 61.511719 186.921875 61.070312 186.324219 60.65625 185.707031 C 60.242188 185.089844 59.859375 184.453125 59.507812 183.796875 C 59.160156 183.140625 58.839844 182.46875 58.554688 181.785156 C 58.269531 181.097656 58.019531 180.398438 57.800781 179.6875 C 57.585938 178.972656 57.40625 178.253906 57.257812 177.523438 C 57.113281 176.796875 57.003906 176.0625 56.929688 175.320312 C 56.855469 174.582031 56.820312 173.839844 56.816406 173.097656 Z M 56.816406 173.097656 " fill-opacity="1" fill-rule="nonzero"/><path fill="#fc254c" d="M 346.589844 104.960938 C 346.589844 104.21875 346.554688 103.476562 346.480469 102.734375 C 346.410156 101.996094 346.300781 101.261719 346.152344 100.53125 C 346.007812 99.800781 345.828125 99.082031 345.613281 98.371094 C 345.394531 97.65625 345.144531 96.957031 344.859375 96.269531 C 344.574219 95.582031 344.257812 94.910156 343.90625 94.257812 C 343.554688 93.601562 343.175781 92.960938 342.761719 92.34375 C 342.347656 91.726562 341.902344 91.128906 341.433594 90.554688 C 340.960938 89.980469 340.460938 89.429688 339.933594 88.902344 C 339.40625 88.375 338.855469 87.878906 338.28125 87.40625 C 337.707031 86.933594 337.109375 86.492188 336.488281 86.078125 C 335.871094 85.664062 335.234375 85.28125 334.578125 84.933594 C 333.921875 84.582031 333.25 84.265625 332.5625 83.980469 C 331.875 83.695312 331.171875 83.445312 330.460938 83.230469 C 329.75 83.011719 329.027344 82.832031 328.296875 82.6875 C 327.566406 82.542969 326.832031 82.433594 326.089844 82.359375 C 325.351562 82.289062 324.609375 82.25 323.863281 82.25 C 323.121094 82.25 322.375 82.289062 321.636719 82.359375 C 320.894531 82.433594 320.160156 82.542969 319.429688 82.6875 C 318.699219 82.832031 317.980469 83.011719 317.265625 83.230469 C 316.554688 83.445312 315.855469 83.695312 315.167969 83.980469 C 314.480469 84.265625 313.804688 84.582031 313.148438 84.933594 C 312.492188 85.28125 311.855469 85.664062 311.238281 86.078125 C 310.617188 86.492188 310.019531 86.933594 309.445312 87.40625 C 308.871094 87.878906 308.320312 88.375 307.792969 88.902344 C 307.265625 89.429688 306.765625 89.980469 306.296875 90.554688 C 305.824219 91.128906 305.378906 91.726562 304.964844 92.34375 C 304.554688 92.960938 304.171875 93.601562 303.820312 94.257812 C 303.46875 94.910156 303.152344 95.582031 302.867188 96.269531 C 302.582031 96.957031 302.332031 97.65625 302.113281 98.371094 C 301.898438 99.082031 301.71875 99.800781 301.574219 100.53125 C 301.429688 101.261719 301.320312 101.996094 301.246094 102.734375 C 301.171875 103.476562 301.136719 104.21875 301.136719 104.960938 C 301.136719 105.707031 301.171875 106.449219 301.246094 107.1875 C 301.320312 107.929688 301.429688 108.664062 301.574219 109.394531 C 301.71875 110.121094 301.898438 110.84375 302.113281 111.554688 C 302.332031 112.265625 302.582031 112.964844 302.867188 113.652344 C 303.152344 114.339844 303.46875 115.011719 303.820312 115.667969 C 304.171875 116.324219 304.554688 116.960938 304.964844 117.578125 C 305.378906 118.199219 305.824219 118.796875 306.296875 119.371094 C 306.765625 119.945312 307.265625 120.496094 307.792969 121.019531 C 308.320312 121.546875 308.871094 122.046875 309.445312 122.519531 C 310.019531 122.988281 310.617188 123.433594 311.238281 123.847656 C 311.855469 124.257812 312.492188 124.640625 313.148438 124.992188 C 313.804688 125.34375 314.480469 125.660156 315.167969 125.945312 C 315.855469 126.230469 316.554688 126.480469 317.265625 126.695312 C 317.980469 126.910156 318.699219 127.09375 319.429688 127.238281 C 320.160156 127.382812 320.894531 127.492188 321.636719 127.5625 C 322.375 127.636719 323.121094 127.671875 323.863281 127.671875 C 324.609375 127.671875 325.351562 127.636719 326.089844 127.5625 C 326.832031 127.488281 327.566406 127.378906 328.296875 127.234375 C 329.023438 127.085938 329.746094 126.90625 330.457031 126.691406 C 331.171875 126.472656 331.871094 126.222656 332.558594 125.9375 C 333.246094 125.652344 333.914062 125.335938 334.570312 124.984375 C 335.226562 124.632812 335.867188 124.25 336.484375 123.839844 C 337.101562 123.425781 337.699219 122.980469 338.273438 122.511719 C 338.851562 122.039062 339.402344 121.539062 339.925781 121.015625 C 340.453125 120.488281 340.953125 119.9375 341.425781 119.363281 C 341.894531 118.789062 342.339844 118.191406 342.753906 117.574219 C 343.167969 116.957031 343.546875 116.320312 343.898438 115.664062 C 344.25 115.007812 344.570312 114.335938 344.855469 113.648438 C 345.140625 112.960938 345.390625 112.261719 345.605469 111.550781 C 345.824219 110.839844 346.003906 110.121094 346.148438 109.390625 C 346.296875 108.660156 346.40625 107.925781 346.480469 107.1875 C 346.554688 106.449219 346.589844 105.707031 346.589844 104.960938 Z M 312.5 104.960938 C 312.5 104.214844 312.574219 103.476562 312.71875 102.746094 C 312.863281 102.015625 313.078125 101.304688 313.363281 100.617188 C 313.652344 99.925781 314 99.273438 314.414062 98.652344 C 314.828125 98.035156 315.300781 97.460938 315.828125 96.933594 C 316.355469 96.40625 316.929688 95.933594 317.550781 95.519531 C 318.171875 95.105469 318.824219 94.757812 319.515625 94.472656 C 320.203125 94.183594 320.914062 93.96875 321.648438 93.824219 C 322.378906 93.679688 323.117188 93.605469 323.863281 93.605469 C 324.609375 93.605469 325.347656 93.679688 326.082031 93.824219 C 326.8125 93.96875 327.523438 94.183594 328.210938 94.472656 C 328.902344 94.757812 329.554688 95.105469 330.175781 95.519531 C 330.796875 95.933594 331.371094 96.40625 331.898438 96.933594 C 332.425781 97.460938 332.898438 98.035156 333.3125 98.652344 C 333.726562 99.273438 334.078125 99.925781 334.363281 100.617188 C 334.648438 101.304688 334.863281 102.015625 335.007812 102.746094 C 335.15625 103.476562 335.226562 104.214844 335.226562 104.960938 C 335.226562 105.707031 335.15625 106.445312 335.007812 107.175781 C 334.863281 107.910156 334.648438 108.617188 334.363281 109.308594 C 334.078125 109.996094 333.726562 110.652344 333.3125 111.269531 C 332.898438 111.890625 332.425781 112.464844 331.898438 112.992188 C 331.371094 113.519531 330.796875 113.988281 330.175781 114.402344 C 329.554688 114.816406 328.902344 115.167969 328.210938 115.453125 C 327.523438 115.738281 326.8125 115.953125 326.082031 116.097656 C 325.347656 116.246094 324.609375 116.316406 323.863281 116.316406 C 323.117188 116.316406 322.378906 116.242188 321.648438 116.097656 C 320.914062 115.953125 320.207031 115.734375 319.515625 115.449219 C 318.828125 115.164062 318.171875 114.816406 317.554688 114.402344 C 316.933594 113.984375 316.359375 113.515625 315.832031 112.988281 C 315.304688 112.460938 314.832031 111.886719 314.417969 111.269531 C 314.003906 110.648438 313.652344 109.996094 313.367188 109.304688 C 313.082031 108.617188 312.867188 107.90625 312.71875 107.175781 C 312.574219 106.445312 312.5 105.707031 312.5 104.960938 Z M 312.5 104.960938 " fill-opacity="1" fill-rule="nonzero"/><g clip-path="url(#id1)"><path fill="#fc254c" d="M 350.058594 161.46875 C 362.347656 147.15625 375 127.097656 375 104.960938 C 375 103.289062 374.917969 101.617188 374.753906 99.953125 C 374.589844 98.289062 374.34375 96.632812 374.015625 94.992188 C 373.691406 93.351562 373.285156 91.730469 372.796875 90.128906 C 372.3125 88.527344 371.75 86.953125 371.105469 85.40625 C 370.464844 83.859375 369.75 82.347656 368.960938 80.875 C 368.171875 79.398438 367.3125 77.964844 366.382812 76.570312 C 365.453125 75.179688 364.453125 73.839844 363.390625 72.542969 C 362.332031 71.25 361.207031 70.011719 360.023438 68.828125 C 358.839844 67.644531 357.597656 66.523438 356.304688 65.460938 C 355.007812 64.398438 353.664062 63.402344 352.273438 62.472656 C 350.882812 61.542969 349.445312 60.683594 347.96875 59.894531 C 346.492188 59.105469 344.980469 58.390625 343.433594 57.75 C 341.886719 57.109375 340.308594 56.546875 338.707031 56.0625 C 337.105469 55.578125 335.480469 55.171875 333.839844 54.84375 C 332.195312 54.515625 330.542969 54.273438 328.875 54.109375 C 327.210938 53.945312 325.539062 53.863281 323.863281 53.863281 C 322.1875 53.863281 320.519531 53.945312 318.851562 54.109375 C 317.183594 54.273438 315.53125 54.515625 313.886719 54.84375 C 312.246094 55.171875 310.621094 55.578125 309.019531 56.0625 C 307.417969 56.546875 305.84375 57.109375 304.292969 57.75 C 302.746094 58.390625 301.234375 59.105469 299.757812 59.894531 C 298.28125 60.683594 296.847656 61.542969 295.453125 62.472656 C 294.0625 63.402344 292.71875 64.398438 291.421875 65.460938 C 290.128906 66.523438 288.890625 67.644531 287.703125 68.828125 C 286.519531 70.011719 285.398438 71.25 284.335938 72.542969 C 283.273438 73.839844 282.277344 75.179688 281.34375 76.570312 C 280.414062 77.964844 279.554688 79.398438 278.765625 80.875 C 277.976562 82.347656 277.261719 83.859375 276.621094 85.40625 C 275.980469 86.953125 275.414062 88.527344 274.929688 90.128906 C 274.441406 91.730469 274.035156 93.351562 273.710938 94.992188 C 273.382812 96.632812 273.136719 98.289062 272.972656 99.953125 C 272.808594 101.617188 272.726562 103.289062 272.726562 104.960938 C 272.726562 127.097656 285.378906 147.15625 297.667969 161.46875 C 291.675781 164.367188 287.460938 168.21875 285.457031 172.664062 C 285.164062 172.636719 284.925781 172.613281 284.605469 172.589844 C 284.234375 172.558594 283.863281 172.566406 283.496094 172.605469 C 283.125 172.648438 282.761719 172.726562 282.40625 172.84375 C 282.050781 172.957031 281.710938 173.105469 281.386719 173.285156 C 281.058594 173.464844 280.753906 173.675781 280.472656 173.917969 C 280.1875 174.15625 279.929688 174.425781 279.695312 174.714844 C 279.464844 175.007812 279.265625 175.316406 279.09375 175.648438 C 278.921875 175.980469 278.785156 176.324219 278.683594 176.683594 C 278.582031 177.042969 278.515625 177.40625 278.484375 177.777344 C 278.453125 178.148438 278.457031 178.519531 278.5 178.886719 C 278.542969 179.257812 278.621094 179.621094 278.734375 179.976562 C 278.847656 180.332031 278.992188 180.671875 279.171875 180.996094 C 279.355469 181.324219 279.5625 181.628906 279.804688 181.910156 C 280.046875 182.195312 280.3125 182.453125 280.601562 182.6875 C 280.894531 182.917969 281.203125 183.121094 281.535156 183.292969 C 281.867188 183.464844 282.210938 183.601562 282.570312 183.703125 C 282.925781 183.804688 283.292969 183.875 283.664062 183.90625 C 284.203125 183.949219 284.644531 183.992188 285.113281 184.03125 C 289.054688 194.269531 304.386719 201.484375 323.863281 201.484375 C 346.539062 201.484375 363.636719 191.722656 363.636719 178.773438 C 363.636719 171.773438 358.667969 165.636719 350.058594 161.46875 Z M 323.863281 65.21875 C 325.164062 65.21875 326.464844 65.285156 327.761719 65.414062 C 329.054688 65.542969 330.34375 65.734375 331.621094 65.988281 C 332.898438 66.242188 334.15625 66.558594 335.402344 66.9375 C 336.648438 67.316406 337.875 67.757812 339.078125 68.253906 C 340.28125 68.753906 341.457031 69.308594 342.601562 69.921875 C 343.75 70.539062 344.867188 71.207031 345.949219 71.929688 C 347.03125 72.652344 348.078125 73.425781 349.082031 74.253906 C 350.089844 75.078125 351.054688 75.953125 351.972656 76.871094 C 352.894531 77.792969 353.769531 78.753906 354.59375 79.761719 C 355.421875 80.765625 356.195312 81.808594 356.917969 82.890625 C 357.644531 83.972656 358.3125 85.089844 358.925781 86.234375 C 359.542969 87.382812 360.097656 88.558594 360.597656 89.757812 C 361.097656 90.960938 361.535156 92.183594 361.914062 93.429688 C 362.292969 94.675781 362.609375 95.933594 362.863281 97.210938 C 363.121094 98.488281 363.3125 99.773438 363.441406 101.066406 C 363.570312 102.363281 363.636719 103.660156 363.636719 104.960938 C 363.636719 135.234375 334.0625 162.84375 323.859375 171.46875 C 313.652344 162.859375 284.089844 135.300781 284.089844 104.960938 C 284.09375 103.660156 284.15625 102.363281 284.285156 101.066406 C 284.414062 99.773438 284.605469 98.488281 284.863281 97.210938 C 285.117188 95.933594 285.433594 94.675781 285.8125 93.429688 C 286.191406 92.183594 286.632812 90.960938 287.128906 89.757812 C 287.628906 88.558594 288.1875 87.382812 288.800781 86.234375 C 289.414062 85.089844 290.082031 83.972656 290.808594 82.890625 C 291.53125 81.808594 292.304688 80.765625 293.132812 79.761719 C 293.957031 78.753906 294.832031 77.792969 295.753906 76.871094 C 296.675781 75.953125 297.636719 75.078125 298.644531 74.253906 C 299.652344 73.425781 300.695312 72.652344 301.777344 71.929688 C 302.859375 71.207031 303.976562 70.539062 305.125 69.921875 C 306.273438 69.308594 307.449219 68.753906 308.648438 68.253906 C 309.851562 67.757812 311.078125 67.316406 312.324219 66.9375 C 313.570312 66.558594 314.832031 66.242188 316.109375 65.988281 C 317.382812 65.734375 318.671875 65.542969 319.964844 65.414062 C 321.261719 65.285156 322.5625 65.21875 323.863281 65.21875 Z M 323.863281 190.128906 C 306.519531 190.128906 295.453125 183.402344 295.453125 178.773438 C 295.453125 176.273438 299.007812 172.773438 305.832031 170.304688 C 310.421875 174.960938 315.296875 179.296875 320.453125 183.316406 C 320.945312 183.683594 321.484375 183.964844 322.066406 184.160156 C 322.648438 184.355469 323.25 184.453125 323.863281 184.453125 C 324.476562 184.453125 325.078125 184.355469 325.660156 184.160156 C 326.242188 183.964844 326.78125 183.683594 327.273438 183.316406 C 332.429688 179.296875 337.304688 174.960938 341.894531 170.304688 C 348.71875 172.777344 352.273438 176.277344 352.273438 178.773438 C 352.273438 183.402344 341.207031 190.128906 323.863281 190.128906 Z M 323.863281 190.128906 " fill-opacity="1" fill-rule="nonzero"/></g><g clip-path="url(#id2)"><path fill="#fc254c" d="M 142.332031 287.019531 C 141.84375 286.992188 141.453125 286.96875 141.023438 286.945312 C 138.0625 279.019531 128.519531 272.480469 113.941406 268.394531 C 135.035156 245.585938 159.089844 211.230469 159.089844 173.097656 C 159.089844 171.796875 159.058594 170.496094 158.996094 169.195312 C 158.929688 167.894531 158.835938 166.597656 158.707031 165.304688 C 158.582031 164.011719 158.421875 162.71875 158.230469 161.433594 C 158.039062 160.144531 157.816406 158.863281 157.5625 157.589844 C 157.308594 156.3125 157.023438 155.042969 156.707031 153.78125 C 156.390625 152.519531 156.042969 151.265625 155.664062 150.023438 C 155.289062 148.777344 154.878906 147.542969 154.441406 146.316406 C 154.003906 145.09375 153.535156 143.878906 153.035156 142.675781 C 152.539062 141.476562 152.011719 140.285156 151.453125 139.109375 C 150.898438 137.933594 150.3125 136.773438 149.699219 135.625 C 149.085938 134.476562 148.441406 133.347656 147.773438 132.230469 C 147.105469 131.113281 146.410156 130.015625 145.683594 128.933594 C 144.960938 127.851562 144.210938 126.789062 143.4375 125.746094 C 142.660156 124.699219 141.859375 123.675781 141.035156 122.667969 C 140.210938 121.664062 139.359375 120.679688 138.484375 119.714844 C 137.609375 118.75 136.714844 117.808594 135.792969 116.886719 C 134.871094 115.96875 133.929688 115.070312 132.964844 114.199219 C 132 113.324219 131.015625 112.476562 130.007812 111.648438 C 129.003906 110.824219 127.976562 110.023438 126.929688 109.25 C 125.886719 108.472656 124.820312 107.726562 123.738281 107.003906 C 122.65625 106.28125 121.554688 105.585938 120.441406 104.914062 C 119.324219 104.246094 118.191406 103.605469 117.042969 102.992188 C 115.894531 102.378906 114.730469 101.792969 113.554688 101.238281 C 112.378906 100.683594 111.1875 100.15625 109.984375 99.65625 C 108.785156 99.160156 107.570312 98.691406 106.34375 98.253906 C 105.117188 97.816406 103.882812 97.40625 102.636719 97.027344 C 101.390625 96.652344 100.136719 96.304688 98.875 95.988281 C 97.609375 95.671875 96.339844 95.386719 95.0625 95.132812 C 93.789062 94.878906 92.503906 94.65625 91.21875 94.46875 C 89.929688 94.277344 88.636719 94.117188 87.34375 93.988281 C 86.046875 93.863281 84.75 93.765625 83.449219 93.703125 C 82.148438 93.636719 80.847656 93.605469 79.546875 93.605469 C 78.242188 93.605469 76.941406 93.636719 75.640625 93.703125 C 74.34375 93.765625 73.042969 93.863281 71.75 93.988281 C 70.453125 94.117188 69.160156 94.277344 67.875 94.46875 C 66.585938 94.65625 65.304688 94.878906 64.027344 95.132812 C 62.75 95.386719 61.480469 95.671875 60.21875 95.988281 C 58.953125 96.304688 57.699219 96.652344 56.453125 97.027344 C 55.207031 97.40625 53.972656 97.816406 52.746094 98.253906 C 51.523438 98.691406 50.308594 99.160156 49.105469 99.65625 C 47.902344 100.15625 46.710938 100.683594 45.535156 101.238281 C 44.359375 101.792969 43.195312 102.378906 42.046875 102.992188 C 40.898438 103.605469 39.765625 104.246094 38.652344 104.914062 C 37.535156 105.585938 36.433594 106.28125 35.351562 107.003906 C 34.269531 107.726562 33.207031 108.472656 32.160156 109.25 C 31.113281 110.023438 30.089844 110.824219 29.082031 111.648438 C 28.074219 112.476562 27.089844 113.324219 26.125 114.199219 C 25.160156 115.070312 24.21875 115.96875 23.296875 116.886719 C 22.378906 117.808594 21.480469 118.75 20.605469 119.714844 C 19.730469 120.679688 18.882812 121.664062 18.054688 122.667969 C 17.230469 123.675781 16.429688 124.699219 15.652344 125.746094 C 14.878906 126.789062 14.128906 127.851562 13.40625 128.933594 C 12.683594 130.015625 11.988281 131.113281 11.316406 132.230469 C 10.648438 133.347656 10.007812 134.476562 9.394531 135.625 C 8.777344 136.773438 8.195312 137.933594 7.636719 139.109375 C 7.082031 140.285156 6.554688 141.476562 6.054688 142.675781 C 5.558594 143.878906 5.089844 145.09375 4.648438 146.316406 C 4.210938 147.542969 3.804688 148.777344 3.425781 150.023438 C 3.046875 151.265625 2.699219 152.519531 2.382812 153.78125 C 2.066406 155.042969 1.78125 156.3125 1.527344 157.589844 C 1.273438 158.863281 1.050781 160.144531 0.859375 161.433594 C 0.671875 162.71875 0.511719 164.011719 0.382812 165.304688 C 0.253906 166.597656 0.160156 167.894531 0.0976562 169.195312 C 0.03125 170.496094 0 171.796875 0 173.097656 C 0 211.230469 24.058594 245.585938 45.148438 268.394531 C 27.378906 273.378906 17.046875 281.996094 17.046875 292.332031 C 17.046875 310.769531 49.246094 320.71875 79.546875 320.71875 C 106.378906 320.71875 134.65625 312.902344 140.785156 298.308594 C 141.097656 298.324219 141.355469 298.339844 141.695312 298.359375 C 141.804688 298.367188 141.914062 298.367188 142.019531 298.367188 C 142.386719 298.367188 142.75 298.332031 143.109375 298.261719 C 143.46875 298.191406 143.816406 298.089844 144.15625 297.949219 C 144.496094 297.8125 144.820312 297.644531 145.125 297.441406 C 145.433594 297.242188 145.714844 297.015625 145.980469 296.757812 C 146.242188 296.503906 146.476562 296.226562 146.6875 295.925781 C 146.894531 295.625 147.070312 295.304688 147.21875 294.96875 C 147.367188 294.636719 147.480469 294.289062 147.558594 293.933594 C 147.640625 293.574219 147.683594 293.214844 147.695312 292.847656 C 147.707031 292.480469 147.679688 292.117188 147.621094 291.757812 C 147.558594 291.394531 147.464844 291.042969 147.335938 290.703125 C 147.207031 290.359375 147.046875 290.03125 146.855469 289.71875 C 146.664062 289.40625 146.445312 289.117188 146.199219 288.847656 C 145.949219 288.578125 145.679688 288.335938 145.382812 288.117188 C 145.089844 287.902344 144.773438 287.714844 144.445312 287.558594 C 144.113281 287.402344 143.769531 287.277344 143.414062 287.1875 C 143.058594 287.097656 142.699219 287.042969 142.335938 287.023438 Z M 79.546875 104.960938 C 80.660156 104.964844 81.777344 104.992188 82.890625 105.046875 C 84.003906 105.105469 85.117188 105.1875 86.226562 105.296875 C 87.335938 105.40625 88.441406 105.546875 89.546875 105.710938 C 90.648438 105.875 91.746094 106.066406 92.839844 106.285156 C 93.933594 106.503906 95.023438 106.746094 96.105469 107.019531 C 97.1875 107.292969 98.261719 107.589844 99.328125 107.914062 C 100.394531 108.238281 101.453125 108.589844 102.503906 108.964844 C 103.554688 109.339844 104.59375 109.742188 105.625 110.167969 C 106.65625 110.597656 107.675781 111.046875 108.683594 111.527344 C 109.691406 112.003906 110.6875 112.503906 111.671875 113.03125 C 112.652344 113.554688 113.625 114.105469 114.582031 114.679688 C 115.539062 115.253906 116.480469 115.847656 117.40625 116.46875 C 118.335938 117.089844 119.246094 117.730469 120.140625 118.394531 C 121.039062 119.058594 121.917969 119.746094 122.777344 120.453125 C 123.640625 121.160156 124.484375 121.886719 125.3125 122.636719 C 126.136719 123.382812 126.945312 124.152344 127.734375 124.941406 C 128.523438 125.730469 129.292969 126.535156 130.042969 127.363281 C 130.789062 128.1875 131.519531 129.03125 132.226562 129.894531 C 132.933594 130.753906 133.621094 131.632812 134.285156 132.527344 C 134.949219 133.421875 135.59375 134.335938 136.210938 135.261719 C 136.832031 136.1875 137.429688 137.128906 138.003906 138.085938 C 138.578125 139.042969 139.128906 140.011719 139.652344 140.992188 C 140.179688 141.976562 140.679688 142.972656 141.160156 143.980469 C 141.636719 144.984375 142.089844 146.003906 142.515625 147.035156 C 142.945312 148.0625 143.347656 149.105469 143.722656 150.152344 C 144.097656 151.203125 144.449219 152.261719 144.773438 153.328125 C 145.097656 154.394531 145.398438 155.46875 145.667969 156.546875 C 145.941406 157.628906 146.1875 158.714844 146.402344 159.808594 C 146.621094 160.902344 146.816406 162 146.980469 163.101562 C 147.144531 164.207031 147.28125 165.3125 147.390625 166.421875 C 147.503906 167.53125 147.585938 168.640625 147.640625 169.753906 C 147.699219 170.867188 147.726562 171.980469 147.726562 173.097656 C 147.726562 226.070312 93.761719 273.515625 79.546875 285.09375 C 65.328125 273.515625 11.363281 226.070312 11.363281 173.097656 C 11.363281 171.980469 11.394531 170.867188 11.449219 169.753906 C 11.503906 168.640625 11.589844 167.53125 11.699219 166.421875 C 11.808594 165.3125 11.945312 164.207031 12.113281 163.101562 C 12.277344 162 12.46875 160.902344 12.6875 159.808594 C 12.90625 158.714844 13.152344 157.628906 13.421875 156.546875 C 13.695312 155.46875 13.992188 154.394531 14.316406 153.328125 C 14.640625 152.261719 14.992188 151.203125 15.367188 150.152344 C 15.746094 149.105469 16.148438 148.0625 16.574219 147.035156 C 17.003906 146.003906 17.453125 144.984375 17.933594 143.980469 C 18.410156 142.972656 18.910156 141.976562 19.4375 140.992188 C 19.964844 140.011719 20.515625 139.042969 21.085938 138.085938 C 21.660156 137.128906 22.257812 136.1875 22.878906 135.261719 C 23.5 134.335938 24.140625 133.421875 24.804688 132.527344 C 25.46875 131.632812 26.15625 130.753906 26.863281 129.894531 C 27.570312 129.03125 28.300781 128.1875 29.050781 127.363281 C 29.796875 126.535156 30.566406 125.730469 31.355469 124.941406 C 32.144531 124.152344 32.953125 123.382812 33.78125 122.636719 C 34.605469 121.886719 35.449219 121.160156 36.3125 120.453125 C 37.175781 119.746094 38.054688 119.058594 38.949219 118.394531 C 39.84375 117.730469 40.757812 117.089844 41.683594 116.46875 C 42.613281 115.847656 43.554688 115.253906 44.511719 114.679688 C 45.464844 114.105469 46.4375 113.554688 47.421875 113.03125 C 48.402344 112.503906 49.398438 112.003906 50.40625 111.527344 C 51.414062 111.046875 52.433594 110.597656 53.464844 110.167969 C 54.496094 109.742188 55.535156 109.339844 56.585938 108.964844 C 57.636719 108.589844 58.695312 108.238281 59.761719 107.914062 C 60.828125 107.589844 61.902344 107.292969 62.984375 107.019531 C 64.066406 106.746094 65.15625 106.503906 66.25 106.285156 C 67.34375 106.066406 68.441406 105.875 69.546875 105.710938 C 70.648438 105.546875 71.753906 105.40625 72.863281 105.296875 C 73.976562 105.1875 75.085938 105.105469 76.199219 105.046875 C 77.316406 104.992188 78.429688 104.964844 79.546875 104.960938 Z M 79.546875 309.363281 C 48.328125 309.363281 28.410156 299.273438 28.410156 292.332031 C 28.410156 287.78125 37.546875 281.394531 54.363281 277.875 C 61.230469 284.667969 68.496094 291.003906 76.15625 296.886719 C 76.644531 297.25 77.179688 297.527344 77.757812 297.71875 C 78.339844 297.914062 78.933594 298.007812 79.546875 298.007812 C 80.15625 298.007812 80.75 297.914062 81.332031 297.71875 C 81.910156 297.527344 82.445312 297.25 82.9375 296.886719 C 90.597656 291.003906 97.859375 284.667969 104.726562 277.875 C 121.546875 281.394531 130.683594 287.78125 130.683594 292.332031 C 130.683594 299.273438 110.761719 309.363281 79.546875 309.363281 Z M 79.546875 309.363281 " fill-opacity="1" fill-rule="nonzero"/></g><path fill="#fc254c" d="M 194.316406 196.941406 C 195.667969 194.699219 197.484375 192.9375 199.769531 191.664062 C 199.835938 191.601562 199.910156 191.5625 200 191.550781 L 200.054688 191.492188 C 200.894531 190.976562 201.550781 190.289062 202.023438 189.425781 C 202.5 188.566406 202.734375 187.644531 202.726562 186.664062 C 202.71875 185.609375 202.453125 184.625 201.933594 183.710938 C 201.734375 183.398438 201.507812 183.109375 201.253906 182.839844 C 201 182.574219 200.722656 182.332031 200.421875 182.117188 C 200.121094 181.898438 199.800781 181.714844 199.46875 181.558594 C 199.132812 181.402344 198.785156 181.28125 198.425781 181.191406 C 198.066406 181.105469 197.703125 181.050781 197.332031 181.03125 C 196.964844 181.011719 196.597656 181.027344 196.230469 181.078125 C 195.863281 181.125 195.503906 181.210938 195.15625 181.328125 C 194.804688 181.449219 194.46875 181.597656 194.148438 181.78125 C 189.660156 184.507812 186.363281 187.742188 184.316406 191.550781 C 184.199219 191.765625 184.097656 191.984375 184.011719 192.214844 C 183.921875 192.441406 183.847656 192.675781 183.792969 192.910156 C 183.734375 193.148438 183.691406 193.390625 183.664062 193.632812 C 183.636719 193.875 183.628906 194.121094 183.632812 194.363281 C 183.636719 194.609375 183.660156 194.851562 183.695312 195.09375 C 183.730469 195.335938 183.785156 195.574219 183.851562 195.808594 C 183.917969 196.042969 184 196.273438 184.097656 196.496094 C 184.195312 196.722656 184.308594 196.9375 184.433594 197.148438 C 184.558594 197.355469 184.699219 197.558594 184.851562 197.75 C 185 197.941406 185.164062 198.121094 185.339844 198.292969 C 185.515625 198.464844 185.703125 198.621094 185.898438 198.769531 C 186.09375 198.914062 186.296875 199.046875 186.511719 199.167969 C 186.722656 199.289062 186.945312 199.394531 187.171875 199.484375 C 187.398438 199.578125 187.628906 199.652344 187.867188 199.714844 C 188.101562 199.773438 188.34375 199.820312 188.585938 199.851562 C 188.828125 199.882812 189.074219 199.894531 189.316406 199.894531 C 189.828125 199.890625 190.328125 199.820312 190.820312 199.683594 C 191.3125 199.546875 191.777344 199.351562 192.214844 199.089844 C 192.652344 198.832031 193.050781 198.519531 193.410156 198.15625 C 193.765625 197.789062 194.066406 197.386719 194.316406 196.941406 Z M 194.316406 196.941406 " fill-opacity="1" fill-rule="nonzero"/><path fill="#fc254c" d="M 175 287.898438 L 174.65625 287.898438 C 171.132812 287.898438 167.554688 287.898438 164.089844 287.84375 L 163.976562 287.84375 C 163.609375 287.847656 163.246094 287.882812 162.882812 287.957031 C 162.523438 288.027344 162.171875 288.132812 161.832031 288.273438 C 161.492188 288.414062 161.167969 288.585938 160.863281 288.785156 C 160.554688 288.988281 160.269531 289.21875 160.007812 289.476562 C 159.746094 289.734375 159.507812 290.011719 159.300781 290.316406 C 159.089844 290.617188 158.914062 290.9375 158.765625 291.277344 C 158.621094 291.613281 158.507812 291.960938 158.425781 292.320312 C 158.347656 292.679688 158.304688 293.042969 158.292969 293.410156 C 158.285156 293.78125 158.316406 294.148438 158.382812 294.515625 C 158.445312 294.878906 158.546875 295.234375 158.683594 295.582031 C 158.820312 295.925781 158.988281 296.257812 159.191406 296.570312 C 159.390625 296.878906 159.621094 297.171875 159.882812 297.4375 C 160.140625 297.703125 160.421875 297.941406 160.730469 298.152344 C 161.035156 298.363281 161.359375 298.542969 161.699219 298.6875 C 162.042969 298.835938 162.394531 298.945312 162.757812 299.023438 C 163.125 299.097656 163.492188 299.140625 163.863281 299.140625 C 167.441406 299.257812 171.019531 299.257812 174.65625 299.257812 L 174.945312 299.257812 C 175.316406 299.257812 175.683594 299.21875 176.046875 299.148438 C 176.414062 299.074219 176.765625 298.96875 177.109375 298.824219 C 177.453125 298.683594 177.78125 298.511719 178.089844 298.304688 C 178.402344 298.097656 178.6875 297.863281 178.949219 297.601562 C 179.214844 297.339844 179.449219 297.054688 179.65625 296.746094 C 179.863281 296.4375 180.039062 296.113281 180.183594 295.769531 C 180.328125 295.425781 180.4375 295.074219 180.511719 294.710938 C 180.585938 294.34375 180.621094 293.976562 180.625 293.605469 C 180.625 293.234375 180.589844 292.867188 180.519531 292.5 C 180.449219 292.136719 180.34375 291.78125 180.203125 291.4375 C 180.066406 291.09375 179.890625 290.765625 179.6875 290.457031 C 179.484375 290.144531 179.25 289.859375 178.988281 289.59375 C 178.730469 289.328125 178.445312 289.089844 178.136719 288.882812 C 177.828125 288.671875 177.503906 288.496094 177.164062 288.351562 C 176.820312 288.207031 176.464844 288.09375 176.101562 288.019531 C 175.738281 287.945312 175.371094 287.902344 175 287.898438 Z M 175 287.898438 " fill-opacity="1" fill-rule="nonzero"/><path fill="#fc254c" d="M 287.839844 247.53125 L 287.839844 247.472656 C 287.695312 247.136719 287.519531 246.816406 287.3125 246.511719 C 287.105469 246.207031 286.871094 245.921875 286.613281 245.664062 C 286.351562 245.402344 286.070312 245.167969 285.765625 244.960938 C 285.460938 244.753906 285.140625 244.578125 284.804688 244.433594 C 284.46875 244.285156 284.117188 244.171875 283.761719 244.09375 C 283.402344 244.011719 283.039062 243.964844 282.667969 243.953125 C 282.300781 243.941406 281.9375 243.964844 281.574219 244.023438 C 281.210938 244.082031 280.855469 244.171875 280.507812 244.296875 C 280.160156 244.429688 279.828125 244.597656 279.511719 244.800781 C 279.195312 245 278.898438 245.230469 278.628906 245.488281 C 278.359375 245.75 278.117188 246.03125 277.902344 246.339844 C 277.6875 246.644531 277.503906 246.96875 277.351562 247.3125 C 277.203125 247.65625 277.085938 248.011719 277.007812 248.375 C 276.925781 248.742188 276.882812 249.113281 276.875 249.488281 C 276.867188 249.859375 276.898438 250.234375 276.964844 250.601562 C 277.03125 250.96875 277.132812 251.328125 277.273438 251.675781 C 278.0625 253.800781 278.441406 255.996094 278.410156 258.261719 C 278.421875 258.757812 278.402344 259.25 278.351562 259.738281 C 278.3125 260.109375 278.308594 260.480469 278.34375 260.851562 C 278.375 261.222656 278.445312 261.589844 278.550781 261.945312 C 278.65625 262.304688 278.796875 262.648438 278.96875 262.980469 C 279.144531 263.308594 279.347656 263.621094 279.582031 263.910156 C 279.816406 264.199219 280.078125 264.464844 280.367188 264.703125 C 280.652344 264.941406 280.960938 265.148438 281.289062 265.328125 C 281.617188 265.507812 281.960938 265.648438 282.316406 265.761719 C 282.671875 265.871094 283.035156 265.945312 283.410156 265.984375 L 283.976562 265.984375 C 284.328125 265.988281 284.675781 265.957031 285.019531 265.894531 C 285.363281 265.832031 285.699219 265.738281 286.027344 265.613281 C 286.355469 265.488281 286.667969 265.335938 286.96875 265.152344 C 287.265625 264.972656 287.546875 264.761719 287.808594 264.527344 C 288.066406 264.292969 288.304688 264.039062 288.519531 263.761719 C 288.730469 263.480469 288.917969 263.1875 289.074219 262.875 C 289.234375 262.5625 289.359375 262.238281 289.460938 261.902344 C 289.558594 261.566406 289.625 261.222656 289.660156 260.875 C 289.714844 260.023438 289.773438 259.113281 289.773438 258.261719 C 289.792969 254.652344 289.1875 251.152344 287.953125 247.757812 C 287.898438 247.699219 287.898438 247.585938 287.839844 247.53125 Z M 287.839844 247.53125 " fill-opacity="1" fill-rule="nonzero"/><path fill="#fc254c" d="M 268.695312 272.683594 C 265.855469 274.433594 262.878906 275.910156 259.769531 277.113281 C 259.425781 277.253906 259.097656 277.425781 258.789062 277.632812 C 258.476562 277.835938 258.1875 278.070312 257.921875 278.328125 C 257.65625 278.589844 257.417969 278.875 257.210938 279.179688 C 257 279.488281 256.820312 279.8125 256.671875 280.152344 C 256.527344 280.496094 256.414062 280.847656 256.332031 281.210938 C 256.253906 281.574219 256.210938 281.941406 256.203125 282.316406 C 256.199219 282.6875 256.226562 283.054688 256.292969 283.421875 C 256.355469 283.789062 256.453125 284.144531 256.589844 284.492188 C 256.800781 285.023438 257.082031 285.507812 257.441406 285.949219 C 257.796875 286.394531 258.210938 286.773438 258.679688 287.09375 C 259.152344 287.414062 259.660156 287.65625 260.203125 287.824219 C 260.75 287.988281 261.304688 288.074219 261.875 288.070312 C 262.601562 288.082031 263.304688 287.949219 263.976562 287.671875 C 267.746094 286.21875 271.34375 284.417969 274.773438 282.28125 C 275.585938 281.761719 276.226562 281.078125 276.691406 280.230469 C 277.152344 279.382812 277.386719 278.476562 277.386719 277.507812 C 277.386719 276.410156 277.101562 275.386719 276.535156 274.441406 C 276.328125 274.132812 276.09375 273.847656 275.835938 273.585938 C 275.574219 273.320312 275.292969 273.082031 274.988281 272.875 C 274.679688 272.664062 274.359375 272.484375 274.019531 272.335938 C 273.679688 272.1875 273.328125 272.074219 272.964844 271.992188 C 272.605469 271.910156 272.238281 271.863281 271.867188 271.855469 C 271.496094 271.84375 271.128906 271.867188 270.761719 271.925781 C 270.398438 271.984375 270.039062 272.078125 269.691406 272.207031 C 269.34375 272.335938 269.011719 272.492188 268.695312 272.683594 Z M 268.695312 272.683594 " fill-opacity="1" fill-rule="nonzero"/><path fill="#fc254c" d="M 207.554688 286.820312 C 203.917969 287.105469 200.285156 287.277344 196.761719 287.445312 C 196.386719 287.457031 196.015625 287.503906 195.652344 287.589844 C 195.289062 287.675781 194.933594 287.792969 194.59375 287.949219 C 194.253906 288.105469 193.929688 288.292969 193.628906 288.511719 C 193.324219 288.730469 193.046875 288.976562 192.792969 289.253906 C 192.539062 289.527344 192.3125 289.824219 192.121094 290.144531 C 191.925781 290.464844 191.765625 290.800781 191.636719 291.152344 C 191.507812 291.503906 191.417969 291.863281 191.363281 292.234375 C 191.304688 292.605469 191.289062 292.976562 191.304688 293.351562 C 191.320312 293.714844 191.367188 294.074219 191.449219 294.429688 C 191.53125 294.78125 191.648438 295.125 191.796875 295.457031 C 191.945312 295.789062 192.121094 296.105469 192.332031 296.402344 C 192.542969 296.699219 192.777344 296.976562 193.042969 297.226562 C 193.304688 297.480469 193.589844 297.703125 193.894531 297.902344 C 194.199219 298.097656 194.523438 298.265625 194.859375 298.398438 C 195.199219 298.535156 195.546875 298.636719 195.90625 298.703125 C 196.261719 298.769531 196.625 298.804688 196.988281 298.800781 L 197.214844 298.800781 C 201.136719 298.632812 204.886719 298.40625 208.351562 298.175781 C 208.707031 298.148438 209.054688 298.089844 209.398438 297.996094 C 209.742188 297.902344 210.074219 297.777344 210.394531 297.621094 C 210.714844 297.46875 211.019531 297.285156 211.304688 297.074219 C 211.589844 296.859375 211.855469 296.625 212.097656 296.363281 C 212.339844 296.105469 212.554688 295.824219 212.746094 295.523438 C 212.9375 295.222656 213.097656 294.90625 213.226562 294.574219 C 213.359375 294.246094 213.460938 293.90625 213.527344 293.558594 C 213.597656 293.207031 213.632812 292.855469 213.632812 292.5 L 213.632812 292.101562 C 213.605469 291.730469 213.542969 291.363281 213.445312 291.003906 C 213.347656 290.644531 213.214844 290.296875 213.046875 289.964844 C 212.878906 289.628906 212.679688 289.3125 212.453125 289.019531 C 212.222656 288.722656 211.96875 288.453125 211.6875 288.207031 C 211.402344 287.964844 211.101562 287.75 210.777344 287.5625 C 210.453125 287.378906 210.113281 287.226562 209.757812 287.105469 C 209.402344 286.988281 209.042969 286.902344 208.671875 286.855469 C 208.300781 286.808594 207.929688 286.796875 207.554688 286.820312 Z M 207.554688 286.820312 " fill-opacity="1" fill-rule="nonzero"/><path fill="#fc254c" d="M 239.601562 282.789062 C 236.476562 283.414062 233.066406 283.984375 229.035156 284.605469 C 228.289062 284.691406 227.589844 284.929688 226.945312 285.3125 C 226.300781 285.699219 225.765625 286.203125 225.339844 286.820312 C 224.878906 287.417969 224.558594 288.082031 224.371094 288.8125 C 224.183594 289.542969 224.144531 290.28125 224.261719 291.023438 C 224.359375 291.699219 224.570312 292.332031 224.902344 292.929688 C 225.230469 293.527344 225.652344 294.046875 226.167969 294.488281 C 226.6875 294.933594 227.265625 295.273438 227.90625 295.503906 C 228.542969 295.738281 229.203125 295.855469 229.886719 295.847656 C 230.152344 295.855469 230.417969 295.835938 230.679688 295.792969 C 234.429688 295.28125 238.179688 294.65625 241.820312 293.917969 C 242.457031 293.789062 243.054688 293.554688 243.617188 293.222656 C 244.175781 292.886719 244.664062 292.46875 245.082031 291.96875 C 245.5 291.46875 245.824219 290.914062 246.050781 290.304688 C 246.28125 289.695312 246.402344 289.0625 246.417969 288.414062 C 246.414062 288.03125 246.375 287.652344 246.304688 287.277344 C 246.226562 286.910156 246.117188 286.558594 245.972656 286.214844 C 245.824219 285.871094 245.648438 285.542969 245.441406 285.234375 C 245.230469 284.925781 244.992188 284.640625 244.730469 284.375 C 244.464844 284.113281 244.179688 283.875 243.867188 283.667969 C 243.558594 283.460938 243.230469 283.285156 242.886719 283.140625 C 242.542969 282.996094 242.1875 282.886719 241.820312 282.8125 C 241.457031 282.738281 241.085938 282.699219 240.710938 282.695312 C 240.339844 282.691406 239.96875 282.722656 239.601562 282.789062 Z M 239.601562 282.789062 " fill-opacity="1" fill-rule="nonzero"/><path fill="#fc254c" d="M 202.839844 224.988281 C 203.503906 224.996094 204.152344 224.890625 204.777344 224.671875 C 205.40625 224.453125 205.980469 224.132812 206.496094 223.714844 C 207.011719 223.292969 207.4375 222.796875 207.777344 222.226562 C 208.121094 221.65625 208.351562 221.042969 208.476562 220.390625 C 208.601562 219.738281 208.613281 219.082031 208.507812 218.425781 C 208.402344 217.769531 208.1875 217.152344 207.867188 216.570312 C 207.542969 215.988281 207.128906 215.480469 206.628906 215.042969 C 206.125 214.609375 205.5625 214.269531 204.941406 214.03125 C 202.066406 213.015625 199.433594 211.558594 197.042969 209.660156 C 196.757812 209.429688 196.449219 209.222656 196.121094 209.050781 C 195.796875 208.875 195.457031 208.730469 195.101562 208.621094 C 194.75 208.511719 194.386719 208.4375 194.019531 208.394531 C 193.652344 208.351562 193.285156 208.347656 192.914062 208.375 C 192.546875 208.40625 192.183594 208.46875 191.824219 208.566406 C 191.46875 208.664062 191.121094 208.792969 190.789062 208.957031 C 190.457031 209.121094 190.144531 209.3125 189.847656 209.539062 C 189.554688 209.761719 189.28125 210.011719 189.035156 210.285156 C 188.792969 210.566406 188.578125 210.871094 188.394531 211.199219 C 188.214844 211.523438 188.0625 211.863281 187.949219 212.21875 C 187.832031 212.570312 187.753906 212.933594 187.707031 213.304688 C 187.664062 213.675781 187.65625 214.046875 187.6875 214.417969 C 187.714844 214.789062 187.78125 215.15625 187.882812 215.511719 C 187.980469 215.871094 188.117188 216.21875 188.285156 216.550781 C 188.457031 216.882812 188.65625 217.195312 188.886719 217.488281 C 189.117188 217.78125 189.375 218.050781 189.660156 218.292969 C 193.003906 221.035156 196.71875 223.136719 200.792969 224.59375 C 201.449219 224.863281 202.132812 224.996094 202.839844 224.988281 Z M 202.839844 224.988281 " fill-opacity="1" fill-rule="nonzero"/><path fill="#fc254c" d="M 234.035156 232.371094 C 234.371094 232.417969 234.714844 232.4375 235.054688 232.429688 C 235.40625 232.425781 235.75 232.390625 236.09375 232.324219 C 236.4375 232.257812 236.773438 232.160156 237.097656 232.03125 C 237.421875 231.902344 237.734375 231.742188 238.03125 231.558594 C 238.328125 231.371094 238.601562 231.160156 238.859375 230.921875 C 239.117188 230.683594 239.351562 230.425781 239.558594 230.144531 C 239.769531 229.863281 239.949219 229.566406 240.101562 229.253906 C 240.257812 228.9375 240.378906 228.613281 240.472656 228.277344 C 240.566406 227.9375 240.628906 227.59375 240.660156 227.246094 C 240.691406 226.898438 240.6875 226.550781 240.652344 226.203125 C 240.617188 225.855469 240.550781 225.511719 240.453125 225.175781 C 240.355469 224.839844 240.226562 224.515625 240.070312 224.203125 C 239.914062 223.894531 239.726562 223.597656 239.515625 223.320312 C 239.300781 223.042969 239.066406 222.785156 238.804688 222.550781 C 238.546875 222.316406 238.265625 222.109375 237.96875 221.925781 C 237.667969 221.746094 237.355469 221.589844 237.03125 221.464844 C 236.703125 221.34375 236.367188 221.25 236.023438 221.1875 L 233.351562 220.730469 C 230.511719 220.222656 227.898438 219.710938 225.226562 219.257812 C 224.859375 219.1875 224.492188 219.152344 224.117188 219.15625 C 223.746094 219.15625 223.378906 219.195312 223.015625 219.273438 C 222.648438 219.347656 222.296875 219.457031 221.953125 219.601562 C 221.609375 219.746094 221.285156 219.921875 220.976562 220.128906 C 220.667969 220.335938 220.382812 220.574219 220.121094 220.835938 C 219.859375 221.101562 219.625 221.386719 219.417969 221.699219 C 219.210938 222.007812 219.039062 222.335938 218.898438 222.679688 C 218.757812 223.023438 218.648438 223.378906 218.578125 223.742188 C 218.53125 224.082031 218.511719 224.421875 218.523438 224.761719 C 218.503906 225.429688 218.605469 226.078125 218.820312 226.707031 C 219.039062 227.335938 219.359375 227.910156 219.78125 228.425781 C 220.203125 228.941406 220.699219 229.367188 221.277344 229.707031 C 221.851562 230.042969 222.46875 230.269531 223.125 230.382812 C 226.417969 231.007812 229.773438 231.636719 233.011719 232.199219 Z M 234.035156 232.371094 " fill-opacity="1" fill-rule="nonzero"/><path fill="#fc254c" d="M 261.648438 182.746094 C 262.015625 182.742188 262.382812 182.703125 262.746094 182.628906 C 263.109375 182.554688 263.464844 182.445312 263.804688 182.304688 C 264.148438 182.160156 264.472656 181.988281 264.785156 181.785156 C 265.09375 181.578125 265.378906 181.347656 265.644531 181.085938 C 265.910156 180.828125 266.148438 180.546875 266.359375 180.242188 C 266.570312 179.9375 266.75 179.613281 266.898438 179.277344 C 267.046875 178.9375 267.164062 178.585938 267.246094 178.226562 C 267.328125 177.863281 267.375 177.496094 267.386719 177.128906 L 267.386719 177.011719 C 267.382812 176.648438 267.339844 176.285156 267.265625 175.929688 C 267.191406 175.570312 267.085938 175.222656 266.941406 174.886719 C 266.800781 174.550781 266.628906 174.230469 266.425781 173.925781 C 266.222656 173.621094 265.992188 173.339844 265.734375 173.078125 C 265.476562 172.820312 265.199219 172.585938 264.898438 172.382812 C 264.59375 172.175781 264.277344 172 263.941406 171.855469 C 263.605469 171.710938 263.257812 171.597656 262.898438 171.519531 C 262.542969 171.441406 262.179688 171.398438 261.816406 171.390625 C 259.089844 171.277344 256.417969 171.277344 253.75 171.277344 L 250.625 171.277344 C 250.25 171.28125 249.882812 171.320312 249.515625 171.398438 C 249.152344 171.472656 248.796875 171.585938 248.453125 171.730469 C 248.109375 171.878906 247.785156 172.054688 247.476562 172.265625 C 247.167969 172.476562 246.882812 172.714844 246.625 172.980469 C 246.363281 173.246094 246.128906 173.535156 245.925781 173.847656 C 245.722656 174.160156 245.550781 174.488281 245.410156 174.835938 C 245.269531 175.179688 245.167969 175.535156 245.097656 175.902344 C 245.027344 176.269531 244.996094 176.640625 245 177.011719 C 245.003906 177.386719 245.042969 177.753906 245.121094 178.117188 C 245.195312 178.484375 245.308594 178.835938 245.453125 179.179688 C 245.601562 179.523438 245.777344 179.847656 245.988281 180.15625 C 246.199219 180.464844 246.4375 180.75 246.703125 181.011719 C 246.96875 181.269531 247.257812 181.503906 247.570312 181.707031 C 247.882812 181.910156 248.214844 182.082031 248.558594 182.222656 C 248.90625 182.363281 249.261719 182.464844 249.628906 182.535156 C 249.996094 182.605469 250.363281 182.636719 250.738281 182.632812 C 254.375 182.578125 258.007812 182.632812 261.53125 182.746094 Z M 261.648438 182.746094 " fill-opacity="1" fill-rule="nonzero"/><path fill="#fc254c" d="M 229.316406 183.769531 C 229.664062 183.734375 230.003906 183.667969 230.339844 183.566406 C 230.675781 183.46875 230.996094 183.339844 231.308594 183.179688 C 231.617188 183.023438 231.910156 182.835938 232.1875 182.621094 C 232.464844 182.410156 232.71875 182.171875 232.949219 181.910156 C 233.179688 181.652344 233.386719 181.371094 233.566406 181.074219 C 233.746094 180.773438 233.898438 180.460938 234.019531 180.136719 C 234.140625 179.808594 234.234375 179.472656 234.292969 179.128906 C 234.351562 178.785156 234.378906 178.441406 234.375 178.09375 L 234.375 177.523438 C 234.332031 177.152344 234.253906 176.792969 234.144531 176.4375 C 234.03125 176.082031 233.882812 175.742188 233.707031 175.414062 C 233.527344 175.089844 233.316406 174.78125 233.078125 174.496094 C 232.839844 174.210938 232.574219 173.949219 232.285156 173.71875 C 231.996094 173.484375 231.6875 173.277344 231.355469 173.105469 C 231.027344 172.929688 230.683594 172.789062 230.328125 172.683594 C 229.972656 172.578125 229.609375 172.503906 229.238281 172.46875 C 228.867188 172.433594 228.496094 172.433594 228.125 172.46875 C 224.089844 172.925781 220.285156 173.4375 216.761719 174.117188 C 216.417969 174.179688 216.082031 174.273438 215.753906 174.402344 C 215.425781 174.527344 215.113281 174.683594 214.816406 174.867188 C 214.519531 175.050781 214.238281 175.257812 213.980469 175.496094 C 213.722656 175.730469 213.484375 175.988281 213.273438 176.265625 C 213.0625 176.546875 212.878906 176.839844 212.722656 177.15625 C 212.566406 177.46875 212.4375 177.792969 212.339844 178.128906 C 212.246094 178.464844 212.179688 178.808594 212.148438 179.15625 C 212.113281 179.503906 212.113281 179.855469 212.144531 180.203125 C 212.175781 180.550781 212.242188 180.894531 212.335938 181.230469 C 212.429688 181.566406 212.554688 181.894531 212.710938 182.207031 C 212.867188 182.519531 213.050781 182.816406 213.261719 183.097656 C 213.472656 183.375 213.707031 183.632812 213.964844 183.871094 C 214.222656 184.105469 214.5 184.316406 214.796875 184.503906 C 215.09375 184.6875 215.40625 184.84375 215.734375 184.972656 C 216.058594 185.097656 216.394531 185.195312 216.738281 185.257812 C 217.085938 185.324219 217.429688 185.359375 217.78125 185.359375 C 218.144531 185.347656 218.507812 185.3125 218.863281 185.246094 C 222.101562 184.679688 225.625 184.167969 229.316406 183.769531 Z M 229.316406 183.769531 " fill-opacity="1" fill-rule="nonzero"/><path fill="#fc254c" d="M 266.933594 240.777344 C 267.582031 240.773438 268.210938 240.664062 268.820312 240.449219 C 269.433594 240.230469 269.988281 239.917969 270.492188 239.511719 C 270.996094 239.101562 271.417969 238.621094 271.757812 238.070312 C 272.097656 237.515625 272.335938 236.925781 272.472656 236.289062 C 272.609375 235.65625 272.632812 235.019531 272.550781 234.375 C 272.46875 233.734375 272.28125 233.121094 271.988281 232.542969 C 271.695312 231.964844 271.316406 231.453125 270.847656 231.003906 C 270.378906 230.554688 269.851562 230.195312 269.257812 229.929688 C 265.761719 228.367188 262.160156 227.078125 258.464844 226.066406 C 258.359375 226.003906 258.246094 225.96875 258.125 225.957031 L 258.066406 225.957031 C 257.710938 225.859375 257.34375 225.800781 256.976562 225.773438 C 256.605469 225.75 256.238281 225.757812 255.867188 225.804688 C 255.5 225.851562 255.140625 225.933594 254.789062 226.046875 C 254.4375 226.164062 254.097656 226.3125 253.773438 226.492188 C 253.453125 226.675781 253.148438 226.886719 252.867188 227.125 C 252.582031 227.367188 252.328125 227.628906 252.097656 227.921875 C 251.863281 228.210938 251.664062 228.519531 251.492188 228.847656 C 251.320312 229.175781 251.183594 229.519531 251.078125 229.875 C 250.964844 230.378906 250.90625 230.890625 250.90625 231.40625 C 250.902344 232.023438 250.996094 232.625 251.1875 233.207031 C 251.378906 233.792969 251.660156 234.332031 252.03125 234.824219 C 252.398438 235.316406 252.839844 235.738281 253.347656 236.085938 C 253.855469 236.433594 254.40625 236.691406 255 236.859375 C 258.285156 237.753906 261.484375 238.890625 264.601562 240.261719 C 265.339844 240.605469 266.117188 240.773438 266.933594 240.777344 Z M 266.933594 240.777344 " fill-opacity="1" fill-rule="nonzero"/></svg>