<svg xmlns="http://www.w3.org/2000/svg" xmlns:xlink="http://www.w3.org/1999/xlink" width="500" zoomAndPan="magnify" viewBox="0 0 375 374.999991" height="500" preserveAspectRatio="xMidYMid meet" version="1.0"><defs><clipPath id="id1"><path d="M 54.609375 0 L 320.109375 0 L 320.109375 375 L 54.609375 375 Z M 54.609375 0 " clip-rule="nonzero"/></clipPath></defs><g clip-path="url(#id1)"><path fill="#fc254c" d="M 187.359375 375 C 185.546875 375 183.722656 374.359375 182.253906 373.09375 C 177.042969 368.59375 54.6875 261.21875 54.6875 132.8125 C 54.6875 59.578125 114.203125 0 187.359375 0 C 260.515625 0 320.03125 59.578125 320.03125 132.8125 C 320.03125 261.21875 197.675781 368.59375 192.464844 373.09375 C 190.996094 374.359375 189.171875 375 187.359375 375 Z M 187.359375 15.625 C 122.804688 15.625 70.296875 68.1875 70.296875 132.8125 C 70.296875 239.71875 164.195312 334.78125 187.359375 356.59375 C 210.507812 334.765625 304.421875 239.59375 304.421875 132.8125 C 304.421875 68.1875 251.914062 15.625 187.359375 15.625 Z M 187.359375 15.625 " fill-opacity="1" fill-rule="nonzero"/></g><path fill="#fc254c" d="M 187.359375 218.75 C 140.035156 218.75 101.511719 180.203125 101.511719 132.8125 C 101.511719 85.421875 140.035156 46.875 187.359375 46.875 C 234.683594 46.875 273.207031 85.421875 273.207031 132.8125 C 273.207031 180.203125 234.683594 218.75 187.359375 218.75 Z M 187.359375 62.5 C 148.632812 62.5 117.121094 94.046875 117.121094 132.8125 C 117.121094 171.578125 148.632812 203.125 187.359375 203.125 C 226.082031 203.125 257.597656 171.578125 257.597656 132.8125 C 257.597656 94.046875 226.082031 62.5 187.359375 62.5 Z M 187.359375 62.5 " fill-opacity="1" fill-rule="nonzero"/><path fill="#fc254c" d="M 187.359375 187.5 C 183.050781 187.5 179.554688 184 179.554688 179.6875 L 179.554688 129.828125 L 175.246094 131.984375 C 171.390625 133.890625 166.710938 132.359375 164.773438 128.484375 C 162.855469 124.625 164.414062 119.9375 168.269531 118 L 183.878906 110.1875 C 186.28125 108.96875 189.171875 109.109375 191.464844 110.53125 C 193.757812 111.953125 195.164062 114.484375 195.164062 117.1875 L 195.164062 179.6875 C 195.164062 184 191.667969 187.5 187.359375 187.5 Z M 187.359375 187.5 " fill-opacity="1" fill-rule="nonzero"/><path fill="#fc254c" d="M 202.96875 187.5 L 171.75 187.5 C 167.441406 187.5 163.945312 184 163.945312 179.6875 C 163.945312 175.375 167.441406 171.875 171.75 171.875 L 202.96875 171.875 C 207.277344 171.875 210.773438 175.375 210.773438 179.6875 C 210.773438 184 207.277344 187.5 202.96875 187.5 Z M 202.96875 187.5 " fill-opacity="1" fill-rule="nonzero"/><path fill="#fc254c" d="M 195.164062 85.9375 C 195.164062 86.449219 195.113281 86.957031 195.011719 87.460938 C 194.914062 87.964844 194.765625 88.453125 194.570312 88.925781 C 194.375 89.402344 194.132812 89.851562 193.847656 90.277344 C 193.5625 90.703125 193.238281 91.097656 192.878906 91.460938 C 192.515625 91.824219 192.121094 92.148438 191.695312 92.433594 C 191.269531 92.71875 190.820312 92.960938 190.347656 93.15625 C 189.871094 93.351562 189.382812 93.5 188.882812 93.601562 C 188.378906 93.699219 187.871094 93.75 187.359375 93.75 C 186.847656 93.75 186.339844 93.699219 185.835938 93.601562 C 185.335938 93.5 184.847656 93.351562 184.371094 93.15625 C 183.898438 92.960938 183.449219 92.71875 183.023438 92.433594 C 182.597656 92.148438 182.203125 91.824219 181.839844 91.460938 C 181.480469 91.097656 181.15625 90.703125 180.871094 90.277344 C 180.585938 89.851562 180.34375 89.402344 180.148438 88.925781 C 179.953125 88.453125 179.804688 87.964844 179.703125 87.460938 C 179.605469 86.957031 179.554688 86.449219 179.554688 85.9375 C 179.554688 85.425781 179.605469 84.917969 179.703125 84.414062 C 179.804688 83.910156 179.953125 83.421875 180.148438 82.949219 C 180.34375 82.472656 180.585938 82.023438 180.871094 81.597656 C 181.15625 81.171875 181.480469 80.777344 181.839844 80.414062 C 182.203125 80.050781 182.597656 79.726562 183.023438 79.441406 C 183.449219 79.15625 183.898438 78.914062 184.371094 78.71875 C 184.847656 78.523438 185.335938 78.375 185.835938 78.273438 C 186.339844 78.175781 186.847656 78.125 187.359375 78.125 C 187.871094 78.125 188.378906 78.175781 188.882812 78.273438 C 189.382812 78.375 189.871094 78.523438 190.347656 78.71875 C 190.820312 78.914062 191.269531 79.15625 191.695312 79.441406 C 192.121094 79.726562 192.515625 80.050781 192.878906 80.414062 C 193.238281 80.777344 193.5625 81.171875 193.847656 81.597656 C 194.132812 82.023438 194.375 82.472656 194.570312 82.949219 C 194.765625 83.421875 194.914062 83.910156 195.011719 84.414062 C 195.113281 84.917969 195.164062 85.425781 195.164062 85.9375 Z M 195.164062 85.9375 " fill-opacity="1" fill-rule="nonzero"/></svg>