<svg xmlns="http://www.w3.org/2000/svg" xmlns:xlink="http://www.w3.org/1999/xlink" width="500" zoomAndPan="magnify" viewBox="0 0 375 374.999991" height="500" preserveAspectRatio="xMidYMid meet" version="1.0"><path fill="#fc254c" d="M 170.25 1.5 C 147.976562 4.574219 124.5 13.726562 107.324219 26.101562 C 99.148438 31.949219 86.476562 43.726562 80.25 51.375 C 62.398438 73.273438 51.976562 99.523438 49.425781 128.925781 C 47.398438 151.875 53.398438 174.375 70.875 208.875 C 86.324219 239.398438 105.601562 269.476562 135.375 309.375 C 160.425781 342.898438 186.375 374.398438 188.398438 373.800781 C 189.074219 373.574219 189.824219 373.800781 190.125 374.25 C 190.351562 374.625 191.925781 375 193.5 375 C 196.273438 375 196.800781 374.625 201.449219 369.226562 C 211.273438 357.75 233.175781 330.074219 246.074219 312.75 C 274.875 274.273438 295.949219 241.273438 310.5 212.25 C 331.273438 170.699219 335.773438 146.851562 328.949219 114.375 C 322.125 82.125 303.601562 52.875 277.5 33 C 255.75 16.425781 235.425781 7.050781 211.425781 2.550781 C 204.074219 1.125 177.675781 0.523438 170.25 1.5 Z M 216.898438 24.675781 C 251.25 31.648438 276.824219 50.851562 294.148438 82.5 C 303.375 99.375 309.148438 124.273438 308.023438 142.425781 C 306 175.574219 275.324219 232.726562 221.023438 304.5 C 209.625 319.574219 191.25 342.675781 189.523438 344.101562 C 188.699219 344.851562 186.449219 342.449219 177.601562 331.273438 C 118.199219 256.648438 80.476562 192.375 73.800781 154.351562 C 70.425781 135.300781 75.449219 108.75 86.324219 87.75 C 104.476562 52.648438 138.675781 28.726562 178.5 23.25 C 186.449219 22.199219 208.574219 22.949219 216.898438 24.675781 Z M 216.898438 24.675781 " fill-opacity="1" fill-rule="nonzero"/><path fill="#fc254c" d="M 186 64.425781 C 177 67.199219 171.976562 74.851562 172.648438 84.675781 C 173.550781 96.824219 182.773438 103.875 196.050781 102.449219 C 207.675781 101.25 214.5 93 213.523438 81.300781 C 212.925781 73.5 208.273438 67.351562 201.226562 64.800781 C 198.148438 63.75 189.074219 63.523438 186 64.425781 Z M 199.199219 72.449219 C 205.648438 76.726562 206.175781 87.226562 200.175781 92.625 C 197.625 94.949219 196.726562 95.25 193.273438 95.25 C 185.023438 95.25 180 87.976562 182.25 79.425781 C 183.226562 75.898438 187.125 71.625 189.898438 71.023438 C 192.601562 70.425781 197.175781 71.175781 199.199219 72.449219 Z M 199.199219 72.449219 " fill-opacity="1" fill-rule="nonzero"/><path fill="#fc254c" d="M 157.875 113.773438 C 154.648438 114.601562 154.5 115.199219 154.5 127.875 C 154.5 137.023438 154.726562 140.25 155.476562 140.851562 C 156.074219 141.375 160.574219 141.824219 166.199219 141.898438 L 175.875 142.125 L 175.875 199.125 L 166.199219 199.351562 C 160.574219 199.425781 156.074219 199.875 155.476562 200.398438 C 154.726562 201 154.5 204.226562 154.5 213.375 C 154.5 223.800781 154.648438 225.75 155.773438 226.574219 C 156.75 227.476562 163.875 227.625 195.148438 227.625 C 232.125 227.625 233.398438 227.550781 234.449219 226.199219 C 235.875 224.175781 235.949219 202.648438 234.601562 200.773438 C 233.773438 199.726562 231.976562 199.5 223.875 199.351562 L 214.125 199.125 L 213.898438 157.425781 C 213.75 119.773438 213.601562 115.574219 212.476562 114.675781 C 211.5 113.851562 206.023438 113.625 185.324219 113.476562 C 171.074219 113.476562 158.699219 113.550781 157.875 113.773438 Z M 204.75 162.75 C 204.75 203.476562 204.824219 204.75 206.175781 205.5 C 207 205.875 211.726562 206.25 216.675781 206.25 L 225.75 206.25 L 225.75 220.5 L 163.5 220.5 L 163.5 206.25 L 173.175781 206.25 C 180.976562 206.25 183.148438 206.023438 184.050781 205.050781 C 185.101562 204 185.25 199.875 185.25 170.625 C 185.25 141.375 185.101562 137.25 184.050781 136.199219 C 183.148438 135.226562 180.976562 135 173.175781 135 L 163.5 135 L 163.5 120.75 L 204.75 120.75 Z M 204.75 162.75 " fill-opacity="1" fill-rule="nonzero"/></svg>