<svg xmlns="http://www.w3.org/2000/svg" xmlns:xlink="http://www.w3.org/1999/xlink" width="500" zoomAndPan="magnify" viewBox="0 0 375 374.999991" height="500" preserveAspectRatio="xMidYMid meet" version="1.0"><path fill="#fc254c" d="M 293.066406 63.25 C 286.085938 63.25 280.425781 68.910156 280.425781 75.894531 C 280.425781 82.875 286.085938 88.539062 293.066406 88.539062 C 300.050781 88.539062 305.710938 82.875 305.710938 75.894531 C 305.710938 68.910156 300.050781 63.25 293.066406 63.25 Z M 293.066406 47.417969 C 310.003906 47.417969 323.734375 61.148438 323.734375 78.085938 C 323.734375 95.023438 300.601562 126.328125 293.066406 137.226562 C 286.617188 128.28125 262.402344 95.023438 262.402344 78.085938 C 262.402344 61.148438 276.132812 47.417969 293.066406 47.417969 " fill-opacity="1" fill-rule="evenodd"/><path fill="#fc254c" d="M 250.984375 137.105469 L 249.03125 145.675781 Z M 241.714844 135.714844 C 238.5 135.445312 236.113281 138.542969 237.1875 141.585938 C 237.785156 143.199219 239.207031 144.3125 240.929688 144.46875 C 243.644531 144.703125 246.367188 145.085938 249.03125 145.675781 C 252.566406 146.472656 255.496094 142.902344 254.015625 139.585938 C 253.429688 138.3125 252.347656 137.425781 250.984375 137.105469 C 250.351562 136.960938 249.714844 136.835938 249.074219 136.710938 C 246.640625 136.257812 244.179688 135.929688 241.714844 135.714844 Z M 204.703125 142.53125 C 203.457031 143.46875 202.8125 144.953125 202.964844 146.503906 C 203.328125 149.898438 207.226562 151.605469 209.96875 149.570312 C 211.898438 148.113281 214.207031 147.136719 216.503906 146.40625 C 220.28125 145.195312 220.691406 140.0625 217.140625 138.269531 C 216.109375 137.769531 214.980469 137.675781 213.886719 138.015625 C 210.644531 139.03125 207.421875 140.476562 204.703125 142.53125 Z M 191.023438 174.984375 C 188.757812 177.707031 190.441406 181.808594 193.957031 182.183594 C 195.425781 182.316406 196.800781 181.761719 197.753906 180.636719 L 197.789062 180.597656 L 197.941406 180.410156 L 198.09375 180.226562 L 198.246094 180.035156 L 198.390625 179.851562 L 198.539062 179.664062 L 198.960938 179.101562 L 199.09375 178.910156 L 199.230469 178.722656 L 199.359375 178.535156 L 199.488281 178.34375 L 199.617188 178.15625 L 199.742188 177.96875 L 199.867188 177.777344 L 199.988281 177.585938 L 200.105469 177.398438 L 200.222656 177.207031 L 200.449219 176.824219 L 200.554688 176.636719 L 200.773438 176.253906 L 201.078125 175.679688 L 201.175781 175.492188 L 201.273438 175.300781 L 201.367188 175.105469 L 201.546875 174.730469 L 201.640625 174.535156 L 201.722656 174.34375 L 201.808594 174.15625 L 201.972656 173.773438 L 202.054688 173.585938 L 202.128906 173.398438 L 202.207031 173.207031 L 202.28125 173.015625 L 202.355469 172.828125 L 202.425781 172.636719 L 202.496094 172.453125 L 202.5625 172.261719 L 202.628906 172.074219 L 202.691406 171.886719 L 202.757812 171.699219 L 202.808594 171.542969 C 203.867188 168.234375 200.933594 165.09375 197.558594 165.914062 C 196.085938 166.296875 194.933594 167.359375 194.453125 168.8125 L 194.421875 168.914062 L 194.378906 169.042969 L 194.332031 169.175781 L 194.238281 169.4375 L 194.1875 169.570312 L 194.140625 169.699219 L 194.089844 169.832031 L 194.039062 169.960938 L 193.984375 170.089844 L 193.933594 170.21875 L 193.878906 170.351562 L 193.824219 170.480469 L 193.769531 170.605469 L 193.710938 170.738281 L 193.652344 170.867188 L 193.59375 170.988281 L 193.53125 171.121094 L 193.46875 171.25 L 193.40625 171.375 L 193.34375 171.503906 L 193.210938 171.761719 L 193.140625 171.890625 L 193.074219 172.015625 L 193.003906 172.140625 L 192.929688 172.265625 L 192.855469 172.398438 L 192.78125 172.523438 L 192.703125 172.648438 L 192.628906 172.777344 L 192.546875 172.902344 L 192.46875 173.03125 L 192.386719 173.160156 L 192.300781 173.285156 L 192.214844 173.414062 L 192.128906 173.539062 L 191.949219 173.796875 L 191.855469 173.921875 L 191.761719 174.050781 L 191.570312 174.308594 L 191.472656 174.433594 L 191.367188 174.5625 L 191.265625 174.691406 L 191.164062 174.816406 L 191.054688 174.945312 Z M 163.800781 180.246094 C 161.796875 179.65625 159.691406 180.523438 158.6875 182.351562 C 157.351562 184.820312 158.609375 187.859375 161.292969 188.667969 L 161.582031 188.753906 L 161.914062 188.851562 L 162.242188 188.949219 L 162.574219 189.046875 L 162.902344 189.140625 L 163.234375 189.238281 L 163.566406 189.328125 L 163.894531 189.421875 L 164.222656 189.511719 L 164.554688 189.601562 L 164.882812 189.691406 L 165.214844 189.78125 L 165.542969 189.863281 L 165.875 189.949219 L 166.859375 190.195312 L 167.515625 190.351562 L 167.847656 190.425781 L 168.171875 190.5 L 168.5 190.570312 L 168.828125 190.644531 L 169.15625 190.710938 L 169.808594 190.84375 L 170.136719 190.90625 L 170.28125 190.929688 C 171.882812 191.214844 173.472656 190.617188 174.492188 189.355469 C 176.566406 186.738281 175.128906 182.894531 171.847656 182.28125 L 171.757812 182.265625 L 171.484375 182.214844 L 171.207031 182.160156 L 170.925781 182.101562 L 170.648438 182.046875 L 170.367188 181.984375 L 170.082031 181.921875 L 169.792969 181.855469 L 169.507812 181.789062 L 169.21875 181.722656 L 168.929688 181.652344 L 168.636719 181.582031 L 168.34375 181.507812 L 167.75 181.359375 L 167.152344 181.199219 L 166.851562 181.121094 L 166.550781 181.035156 L 166.25 180.953125 L 165.941406 180.867188 L 165.332031 180.695312 L 164.714844 180.515625 L 164.402344 180.421875 L 164.09375 180.332031 Z M 126.25 176.070312 C 123.121094 178.117188 123.785156 182.855469 127.363281 183.964844 C 128.617188 184.34375 129.921875 184.15625 131.027344 183.449219 L 131.066406 183.421875 L 131.285156 183.289062 L 131.394531 183.226562 L 131.507812 183.164062 L 131.625 183.105469 L 131.746094 183.046875 L 131.867188 182.992188 L 131.992188 182.9375 L 132.25 182.835938 L 132.382812 182.789062 L 132.664062 182.695312 L 132.8125 182.652344 L 132.957031 182.613281 L 133.109375 182.574219 L 133.421875 182.503906 L 133.585938 182.472656 L 133.753906 182.441406 L 133.921875 182.414062 L 134.09375 182.390625 L 134.273438 182.363281 L 134.453125 182.34375 L 134.640625 182.324219 L 134.828125 182.308594 L 135.019531 182.292969 L 135.214844 182.28125 L 135.414062 182.273438 L 135.617188 182.269531 L 135.820312 182.261719 L 136.242188 182.261719 L 136.457031 182.265625 L 136.675781 182.269531 L 136.890625 182.28125 C 140.628906 182.421875 142.828125 178.179688 140.554688 175.199219 C 139.75 174.167969 138.574219 173.558594 137.269531 173.5 L 136.957031 173.484375 L 136.640625 173.480469 L 136.328125 173.472656 L 135.695312 173.472656 L 135.382812 173.480469 L 135.070312 173.492188 L 134.753906 173.503906 L 134.441406 173.523438 L 134.128906 173.546875 L 133.816406 173.574219 L 133.503906 173.605469 L 133.191406 173.640625 L 132.878906 173.683594 L 132.570312 173.726562 L 132.257812 173.78125 L 131.949219 173.835938 L 131.640625 173.898438 L 131.328125 173.964844 L 131.023438 174.035156 L 130.714844 174.113281 L 130.410156 174.199219 L 130.105469 174.289062 L 129.800781 174.382812 L 129.5 174.484375 L 129.199219 174.59375 L 128.894531 174.710938 L 128.597656 174.832031 L 128.304688 174.957031 L 128.007812 175.09375 L 127.714844 175.234375 L 127.425781 175.378906 L 127.136719 175.535156 L 126.855469 175.699219 L 126.570312 175.867188 L 126.292969 176.042969 Z M 119.75 213.675781 C 120.058594 216.054688 122.148438 217.726562 124.539062 217.507812 C 127 217.261719 128.773438 215.046875 128.472656 212.589844 L 128.449219 212.410156 L 128.371094 211.792969 L 128.265625 210.867188 L 128.230469 210.5625 L 128.195312 210.253906 L 128.160156 209.949219 L 128.035156 208.730469 L 127.972656 208.125 L 127.941406 207.824219 L 127.859375 206.921875 L 127.804688 206.328125 L 127.78125 206.027344 L 127.753906 205.734375 L 127.707031 205.140625 L 127.660156 204.554688 L 127.640625 204.261719 L 127.625 204.066406 C 127.5 202.421875 126.492188 201.007812 124.976562 200.351562 C 121.9375 199.058594 118.632812 201.417969 118.859375 204.707031 L 118.875 204.914062 L 118.921875 205.53125 L 118.945312 205.84375 L 118.96875 206.152344 L 119.078125 207.402344 L 119.105469 207.71875 L 119.136719 208.03125 L 119.164062 208.351562 L 119.226562 208.984375 L 119.257812 209.304688 L 119.320312 209.9375 L 119.355469 210.257812 L 119.390625 210.582031 L 119.460938 211.222656 L 119.496094 211.546875 L 119.53125 211.867188 L 119.570312 212.195312 L 119.609375 212.515625 L 119.644531 212.839844 L 119.6875 213.167969 L 119.726562 213.492188 Z M 128.671875 248.839844 C 130.019531 251.972656 134.265625 252.4375 136.269531 249.679688 C 137.179688 248.398438 137.359375 246.820312 136.746094 245.371094 L 136.652344 245.148438 L 136.535156 244.875 L 136.300781 244.320312 L 136.1875 244.042969 L 136.070312 243.761719 L 135.957031 243.484375 L 135.847656 243.203125 L 135.734375 242.921875 L 135.625 242.636719 L 135.511719 242.355469 L 135.402344 242.066406 L 135.296875 241.78125 L 135.1875 241.496094 L 135.078125 241.207031 L 134.867188 240.628906 L 134.765625 240.339844 L 134.660156 240.046875 L 134.558594 239.753906 L 134.453125 239.460938 L 134.351562 239.167969 L 134.253906 238.875 L 134.152344 238.578125 L 133.859375 237.6875 L 133.808594 237.53125 C 132.796875 234.457031 128.996094 233.476562 126.617188 235.671875 C 125.378906 236.855469 124.917969 238.589844 125.441406 240.226562 L 125.5 240.40625 L 125.605469 240.730469 L 125.714844 241.054688 L 125.820312 241.378906 L 125.929688 241.699219 L 126.039062 242.023438 L 126.152344 242.34375 L 126.261719 242.664062 L 126.375 242.984375 L 126.488281 243.300781 L 126.605469 243.621094 L 126.71875 243.9375 L 126.835938 244.253906 L 126.953125 244.574219 L 127.074219 244.886719 L 127.191406 245.203125 L 127.3125 245.519531 L 127.433594 245.832031 L 127.558594 246.144531 L 127.679688 246.457031 L 127.804688 246.765625 L 127.933594 247.078125 L 128.058594 247.386719 L 128.1875 247.695312 L 128.316406 248.007812 L 128.574219 248.617188 Z M 154.34375 275.792969 C 157.167969 277.179688 160.449219 275.269531 160.679688 272.140625 C 160.78125 270.347656 159.847656 268.71875 158.242188 267.914062 L 158.144531 267.867188 L 157.945312 267.765625 L 157.742188 267.667969 L 157.542969 267.566406 L 157.136719 267.363281 L 156.933594 267.257812 L 156.726562 267.15625 L 156.320312 266.945312 L 156.113281 266.839844 L 155.699219 266.621094 L 155.492188 266.515625 L 155.285156 266.40625 L 155.074219 266.292969 L 154.863281 266.183594 L 154.65625 266.070312 L 154.445312 265.957031 L 154.230469 265.84375 L 154.019531 265.726562 L 153.804688 265.613281 L 153.382812 265.378906 L 153.164062 265.257812 L 152.949219 265.140625 L 152.734375 265.019531 L 152.515625 264.894531 L 152.296875 264.773438 L 152.082031 264.648438 L 151.863281 264.527344 L 151.644531 264.398438 L 151.425781 264.273438 L 151.238281 264.164062 L 151.050781 264.050781 L 150.871094 263.941406 C 148.421875 262.429688 145.230469 263.628906 144.363281 266.371094 C 143.769531 268.296875 144.539062 270.347656 146.246094 271.414062 L 146.496094 271.570312 L 146.757812 271.726562 L 147.023438 271.878906 L 147.257812 272.015625 L 147.730469 272.285156 L 147.96875 272.421875 L 148.203125 272.554688 L 148.433594 272.683594 L 148.667969 272.816406 L 148.902344 272.945312 L 149.132812 273.070312 L 149.363281 273.199219 L 149.824219 273.449219 L 150.050781 273.574219 L 150.503906 273.816406 L 150.734375 273.941406 L 151.179688 274.175781 L 151.40625 274.296875 L 151.628906 274.414062 L 151.851562 274.527344 L 152.074219 274.644531 L 152.292969 274.757812 L 152.515625 274.871094 L 152.734375 274.984375 L 153.171875 275.203125 L 153.386719 275.3125 L 153.605469 275.421875 L 153.816406 275.53125 L 154.03125 275.636719 L 154.246094 275.746094 Z M 180.242188 293.125 C 181.722656 296.644531 186.613281 296.765625 188.277344 293.320312 C 188.804688 292.179688 188.839844 290.929688 188.363281 289.765625 C 188.3125 289.636719 188.253906 289.503906 188.199219 289.378906 C 186.828125 286.210938 185.003906 283.414062 182.515625 281.011719 C 181.046875 279.601562 178.808594 279.378906 177.09375 280.480469 C 174.707031 282.035156 174.375 285.363281 176.421875 287.347656 C 178.144531 289.027344 179.3125 290.902344 180.238281 293.113281 Z M 164.308594 310.898438 C 160.84375 312.007812 160.117188 316.570312 163.089844 318.683594 C 164.222656 319.476562 165.617188 319.691406 166.9375 319.285156 L 167.171875 319.210938 L 167.445312 319.125 L 168.253906 318.867188 L 168.519531 318.777344 L 168.789062 318.6875 L 169.050781 318.597656 L 169.316406 318.507812 L 169.839844 318.328125 L 170.101562 318.234375 L 170.363281 318.144531 L 170.621094 318.046875 L 170.882812 317.953125 L 171.390625 317.765625 L 171.648438 317.667969 L 171.902344 317.570312 L 172.652344 317.277344 L 173.152344 317.074219 L 173.398438 316.972656 L 173.640625 316.871094 L 173.886719 316.769531 L 174.128906 316.664062 L 174.371094 316.5625 L 174.613281 316.453125 L 174.851562 316.351562 L 175.085938 316.242188 L 175.324219 316.136719 L 175.558594 316.027344 L 175.703125 315.960938 C 178.949219 314.433594 179.097656 309.863281 175.953125 308.128906 C 174.710938 307.445312 173.25 307.410156 171.96875 308.003906 L 171.863281 308.050781 L 171.667969 308.144531 L 171.269531 308.324219 L 171.066406 308.414062 L 170.863281 308.5 L 170.660156 308.589844 L 170.453125 308.675781 L 170.246094 308.765625 L 170.035156 308.851562 L 169.824219 308.941406 L 169.609375 309.027344 L 169.398438 309.113281 L 168.960938 309.285156 L 168.742188 309.367188 L 168.523438 309.453125 L 168.300781 309.535156 L 168.074219 309.621094 L 167.851562 309.703125 L 167.625 309.785156 L 167.394531 309.871094 L 167.167969 309.953125 L 166.933594 310.03125 L 166.703125 310.113281 L 166.464844 310.195312 L 166.230469 310.273438 L 165.996094 310.355469 L 165.757812 310.433594 L 165.515625 310.511719 L 165.277344 310.589844 L 165.035156 310.667969 L 164.789062 310.746094 L 164.546875 310.824219 Z M 130.746094 316.710938 C 126.816406 317.011719 125.21875 321.878906 128.210938 324.449219 C 129.101562 325.195312 130.199219 325.558594 131.359375 325.480469 C 133.144531 325.355469 134.945312 325.242188 136.726562 325.070312 L 136.894531 325.054688 L 137.214844 325.015625 L 137.539062 324.980469 L 138.511719 324.863281 L 139.15625 324.785156 L 140.128906 324.667969 L 140.359375 324.636719 C 142.386719 324.371094 143.945312 322.777344 144.171875 320.746094 C 144.46875 317.914062 142.070312 315.570312 139.246094 315.917969 L 139.027344 315.945312 L 138.71875 315.984375 L 138.09375 316.0625 L 137.777344 316.101562 L 137.464844 316.136719 L 137.152344 316.175781 L 136.839844 316.210938 L 136.527344 316.25 L 136.214844 316.285156 L 135.898438 316.320312 C 134.40625 316.46875 132.886719 316.558594 131.386719 316.667969 Z M 95.742188 318.800781 C 93.757812 318.90625 92.117188 320.292969 91.671875 322.226562 C 91.042969 325.070312 93.273438 327.714844 96.179688 327.582031 L 96.25 327.578125 L 96.484375 327.566406 L 96.722656 327.554688 L 96.960938 327.539062 L 98.152344 327.480469 L 98.394531 327.46875 L 98.871094 327.445312 L 99.109375 327.429688 L 99.59375 327.40625 L 100.070312 327.382812 L 100.3125 327.367188 L 100.550781 327.355469 L 101.035156 327.332031 L 101.515625 327.304688 L 101.757812 327.292969 L 101.996094 327.28125 L 102.238281 327.265625 L 102.722656 327.242188 L 102.964844 327.226562 L 103.203125 327.214844 L 103.445312 327.203125 L 103.683594 327.1875 L 103.925781 327.175781 L 104.167969 327.160156 L 104.410156 327.148438 L 104.648438 327.136719 L 104.886719 327.121094 L 104.980469 327.117188 C 108.429688 326.90625 110.304688 323.046875 108.332031 320.203125 C 107.449219 318.957031 106.023438 318.257812 104.492188 318.339844 L 104.40625 318.347656 L 103.921875 318.371094 L 103.683594 318.386719 L 103.207031 318.410156 L 102.964844 318.425781 L 102.726562 318.4375 L 102.484375 318.449219 L 102.246094 318.464844 L 101.769531 318.488281 L 101.527344 318.503906 L 101.289062 318.515625 L 101.046875 318.527344 L 100.808594 318.539062 L 100.566406 318.554688 L 100.332031 318.566406 L 100.09375 318.578125 L 99.851562 318.59375 L 99.375 318.617188 L 99.132812 318.628906 L 98.417969 318.664062 L 98.179688 318.679688 L 97.703125 318.703125 L 97.46875 318.714844 L 96.753906 318.75 L 96.285156 318.773438 L 96.046875 318.785156 L 95.8125 318.796875 Z M 285.46875 143.753906 C 289.292969 142.917969 290.21875 137.921875 286.941406 135.769531 C 285.953125 135.132812 284.785156 134.917969 283.636719 135.15625 C 281.511719 135.613281 279.398438 136.238281 277.296875 136.78125 C 276.539062 136.976562 275.777344 137.167969 275.015625 137.351562 C 272.957031 137.847656 271.558594 139.703125 271.644531 141.816406 C 271.773438 144.582031 274.359375 146.53125 277.050781 145.898438 C 279.449219 145.335938 281.804688 144.65625 284.1875 144.054688 C 284.613281 143.949219 285.039062 143.847656 285.46875 143.753906 " fill-opacity="1" fill-rule="nonzero"/><path fill="#fc254c" d="M 81.9375 246.285156 C 74.953125 246.285156 69.292969 251.949219 69.292969 258.929688 C 69.292969 265.914062 74.953125 271.574219 81.9375 271.574219 C 88.917969 271.574219 94.578125 265.914062 94.578125 258.929688 C 94.578125 251.949219 88.917969 246.285156 81.9375 246.285156 Z M 81.9375 230.453125 C 98.871094 230.453125 112.601562 244.183594 112.601562 261.121094 C 112.601562 278.058594 89.46875 309.363281 81.9375 320.261719 C 75.484375 311.316406 51.269531 278.058594 51.269531 261.121094 C 51.269531 244.183594 65 230.453125 81.9375 230.453125 " fill-opacity="1" fill-rule="evenodd"/></svg>